<?xml version="1.0" encoding="utf-8" standalone="no"?>
<!DOCTYPE svg PUBLIC "-//W3C//DTD SVG 1.1//EN"
  "http://www.w3.org/Graphics/SVG/1.1/DTD/svg11.dtd">
<!-- Created with matplotlib (https://matplotlib.org/) -->
<svg height="432pt" version="1.1" viewBox="0 0 432 432" width="432pt" xmlns="http://www.w3.org/2000/svg" xmlns:xlink="http://www.w3.org/1999/xlink">
 <defs>
  <style type="text/css">
*{stroke-linecap:butt;stroke-linejoin:round;}
  </style>
 </defs>
 <g id="figure_1">
  <g id="patch_1">
   <path d="M 0 432 
L 432 432 
L 432 0 
L 0 0 
z
" style="fill:#ffffff;"/>
  </g>
  <g id="axes_1">
   <g id="patch_2">
    <path d="M 56.835 382.54 
L 356.947714 382.54 
L 356.947714 76.316571 
L 56.835 76.316571 
z
" style="fill:#eaeaf2;"/>
   </g>
   <g id="matplotlib.axis_1">
    <g id="xtick_1">
     <g id="line2d_1">
      <path clip-path="url(#p142c2b7a8a)" d="M 91.9402 382.54 
L 91.9402 76.316571 
" style="fill:none;stroke:#ffffff;stroke-linecap:round;"/>
     </g>
     <g id="text_1">
      <!-- 0 -->
      <defs>
       <path d="M 31.78125 66.40625 
Q 24.171875 66.40625 20.328125 58.90625 
Q 16.5 51.421875 16.5 36.375 
Q 16.5 21.390625 20.328125 13.890625 
Q 24.171875 6.390625 31.78125 6.390625 
Q 39.453125 6.390625 43.28125 13.890625 
Q 47.125 21.390625 47.125 36.375 
Q 47.125 51.421875 43.28125 58.90625 
Q 39.453125 66.40625 31.78125 66.40625 
z
M 31.78125 74.21875 
Q 44.046875 74.21875 50.515625 64.515625 
Q 56.984375 54.828125 56.984375 36.375 
Q 56.984375 17.96875 50.515625 8.265625 
Q 44.046875 -1.421875 31.78125 -1.421875 
Q 19.53125 -1.421875 13.0625 8.265625 
Q 6.59375 17.96875 6.59375 36.375 
Q 6.59375 54.828125 13.0625 64.515625 
Q 19.53125 74.21875 31.78125 74.21875 
z
" id="DejaVuSans-48"/>
      </defs>
      <g style="fill:#262626;" transform="translate(88.440825 400.398281)scale(0.11 -0.11)">
       <use xlink:href="#DejaVuSans-48"/>
      </g>
     </g>
    </g>
    <g id="xtick_2">
     <g id="line2d_2">
      <path clip-path="url(#p142c2b7a8a)" d="M 144.048612 382.54 
L 144.048612 76.316571 
" style="fill:none;stroke:#ffffff;stroke-linecap:round;"/>
     </g>
     <g id="text_2">
      <!-- 1000 -->
      <defs>
       <path d="M 12.40625 8.296875 
L 28.515625 8.296875 
L 28.515625 63.921875 
L 10.984375 60.40625 
L 10.984375 69.390625 
L 28.421875 72.90625 
L 38.28125 72.90625 
L 38.28125 8.296875 
L 54.390625 8.296875 
L 54.390625 0 
L 12.40625 0 
z
" id="DejaVuSans-49"/>
      </defs>
      <g style="fill:#262626;" transform="translate(130.051112 400.398281)scale(0.11 -0.11)">
       <use xlink:href="#DejaVuSans-49"/>
       <use x="63.623047" xlink:href="#DejaVuSans-48"/>
       <use x="127.246094" xlink:href="#DejaVuSans-48"/>
       <use x="190.869141" xlink:href="#DejaVuSans-48"/>
      </g>
     </g>
    </g>
    <g id="xtick_3">
     <g id="line2d_3">
      <path clip-path="url(#p142c2b7a8a)" d="M 196.157024 382.54 
L 196.157024 76.316571 
" style="fill:none;stroke:#ffffff;stroke-linecap:round;"/>
     </g>
     <g id="text_3">
      <!-- 2000 -->
      <defs>
       <path d="M 19.1875 8.296875 
L 53.609375 8.296875 
L 53.609375 0 
L 7.328125 0 
L 7.328125 8.296875 
Q 12.9375 14.109375 22.625 23.890625 
Q 32.328125 33.6875 34.8125 36.53125 
Q 39.546875 41.84375 41.421875 45.53125 
Q 43.3125 49.21875 43.3125 52.78125 
Q 43.3125 58.59375 39.234375 62.25 
Q 35.15625 65.921875 28.609375 65.921875 
Q 23.96875 65.921875 18.8125 64.3125 
Q 13.671875 62.703125 7.8125 59.421875 
L 7.8125 69.390625 
Q 13.765625 71.78125 18.9375 73 
Q 24.125 74.21875 28.421875 74.21875 
Q 39.75 74.21875 46.484375 68.546875 
Q 53.21875 62.890625 53.21875 53.421875 
Q 53.21875 48.921875 51.53125 44.890625 
Q 49.859375 40.875 45.40625 35.40625 
Q 44.1875 33.984375 37.640625 27.21875 
Q 31.109375 20.453125 19.1875 8.296875 
z
" id="DejaVuSans-50"/>
      </defs>
      <g style="fill:#262626;" transform="translate(182.159524 400.398281)scale(0.11 -0.11)">
       <use xlink:href="#DejaVuSans-50"/>
       <use x="63.623047" xlink:href="#DejaVuSans-48"/>
       <use x="127.246094" xlink:href="#DejaVuSans-48"/>
       <use x="190.869141" xlink:href="#DejaVuSans-48"/>
      </g>
     </g>
    </g>
    <g id="xtick_4">
     <g id="line2d_4">
      <path clip-path="url(#p142c2b7a8a)" d="M 248.265436 382.54 
L 248.265436 76.316571 
" style="fill:none;stroke:#ffffff;stroke-linecap:round;"/>
     </g>
     <g id="text_4">
      <!-- 3000 -->
      <defs>
       <path d="M 40.578125 39.3125 
Q 47.65625 37.796875 51.625 33 
Q 55.609375 28.21875 55.609375 21.1875 
Q 55.609375 10.40625 48.1875 4.484375 
Q 40.765625 -1.421875 27.09375 -1.421875 
Q 22.515625 -1.421875 17.65625 -0.515625 
Q 12.796875 0.390625 7.625 2.203125 
L 7.625 11.71875 
Q 11.71875 9.328125 16.59375 8.109375 
Q 21.484375 6.890625 26.8125 6.890625 
Q 36.078125 6.890625 40.9375 10.546875 
Q 45.796875 14.203125 45.796875 21.1875 
Q 45.796875 27.640625 41.28125 31.265625 
Q 36.765625 34.90625 28.71875 34.90625 
L 20.21875 34.90625 
L 20.21875 43.015625 
L 29.109375 43.015625 
Q 36.375 43.015625 40.234375 45.921875 
Q 44.09375 48.828125 44.09375 54.296875 
Q 44.09375 59.90625 40.109375 62.90625 
Q 36.140625 65.921875 28.71875 65.921875 
Q 24.65625 65.921875 20.015625 65.03125 
Q 15.375 64.15625 9.8125 62.3125 
L 9.8125 71.09375 
Q 15.4375 72.65625 20.34375 73.4375 
Q 25.25 74.21875 29.59375 74.21875 
Q 40.828125 74.21875 47.359375 69.109375 
Q 53.90625 64.015625 53.90625 55.328125 
Q 53.90625 49.265625 50.4375 45.09375 
Q 46.96875 40.921875 40.578125 39.3125 
z
" id="DejaVuSans-51"/>
      </defs>
      <g style="fill:#262626;" transform="translate(234.267936 400.398281)scale(0.11 -0.11)">
       <use xlink:href="#DejaVuSans-51"/>
       <use x="63.623047" xlink:href="#DejaVuSans-48"/>
       <use x="127.246094" xlink:href="#DejaVuSans-48"/>
       <use x="190.869141" xlink:href="#DejaVuSans-48"/>
      </g>
     </g>
    </g>
    <g id="xtick_5">
     <g id="line2d_5">
      <path clip-path="url(#p142c2b7a8a)" d="M 300.373849 382.54 
L 300.373849 76.316571 
" style="fill:none;stroke:#ffffff;stroke-linecap:round;"/>
     </g>
     <g id="text_5">
      <!-- 4000 -->
      <defs>
       <path d="M 37.796875 64.3125 
L 12.890625 25.390625 
L 37.796875 25.390625 
z
M 35.203125 72.90625 
L 47.609375 72.90625 
L 47.609375 25.390625 
L 58.015625 25.390625 
L 58.015625 17.1875 
L 47.609375 17.1875 
L 47.609375 0 
L 37.796875 0 
L 37.796875 17.1875 
L 4.890625 17.1875 
L 4.890625 26.703125 
z
" id="DejaVuSans-52"/>
      </defs>
      <g style="fill:#262626;" transform="translate(286.376349 400.398281)scale(0.11 -0.11)">
       <use xlink:href="#DejaVuSans-52"/>
       <use x="63.623047" xlink:href="#DejaVuSans-48"/>
       <use x="127.246094" xlink:href="#DejaVuSans-48"/>
       <use x="190.869141" xlink:href="#DejaVuSans-48"/>
      </g>
     </g>
    </g>
    <g id="xtick_6">
     <g id="line2d_6">
      <path clip-path="url(#p142c2b7a8a)" d="M 352.482261 382.54 
L 352.482261 76.316571 
" style="fill:none;stroke:#ffffff;stroke-linecap:round;"/>
     </g>
     <g id="text_6">
      <!-- 5000 -->
      <defs>
       <path d="M 10.796875 72.90625 
L 49.515625 72.90625 
L 49.515625 64.59375 
L 19.828125 64.59375 
L 19.828125 46.734375 
Q 21.96875 47.46875 24.109375 47.828125 
Q 26.265625 48.1875 28.421875 48.1875 
Q 40.625 48.1875 47.75 41.5 
Q 54.890625 34.8125 54.890625 23.390625 
Q 54.890625 11.625 47.5625 5.09375 
Q 40.234375 -1.421875 26.90625 -1.421875 
Q 22.3125 -1.421875 17.546875 -0.640625 
Q 12.796875 0.140625 7.71875 1.703125 
L 7.71875 11.625 
Q 12.109375 9.234375 16.796875 8.0625 
Q 21.484375 6.890625 26.703125 6.890625 
Q 35.15625 6.890625 40.078125 11.328125 
Q 45.015625 15.765625 45.015625 23.390625 
Q 45.015625 31 40.078125 35.4375 
Q 35.15625 39.890625 26.703125 39.890625 
Q 22.75 39.890625 18.8125 39.015625 
Q 14.890625 38.140625 10.796875 36.28125 
z
" id="DejaVuSans-53"/>
      </defs>
      <g style="fill:#262626;" transform="translate(338.484761 400.398281)scale(0.11 -0.11)">
       <use xlink:href="#DejaVuSans-53"/>
       <use x="63.623047" xlink:href="#DejaVuSans-48"/>
       <use x="127.246094" xlink:href="#DejaVuSans-48"/>
       <use x="190.869141" xlink:href="#DejaVuSans-48"/>
      </g>
     </g>
    </g>
    <g id="text_7">
     <!-- width -->
     <defs>
      <path d="M 4.203125 54.6875 
L 13.1875 54.6875 
L 24.421875 12.015625 
L 35.59375 54.6875 
L 46.1875 54.6875 
L 57.421875 12.015625 
L 68.609375 54.6875 
L 77.59375 54.6875 
L 63.28125 0 
L 52.6875 0 
L 40.921875 44.828125 
L 29.109375 0 
L 18.5 0 
z
" id="DejaVuSans-119"/>
      <path d="M 9.421875 54.6875 
L 18.40625 54.6875 
L 18.40625 0 
L 9.421875 0 
z
M 9.421875 75.984375 
L 18.40625 75.984375 
L 18.40625 64.59375 
L 9.421875 64.59375 
z
" id="DejaVuSans-105"/>
      <path d="M 45.40625 46.390625 
L 45.40625 75.984375 
L 54.390625 75.984375 
L 54.390625 0 
L 45.40625 0 
L 45.40625 8.203125 
Q 42.578125 3.328125 38.25 0.953125 
Q 33.9375 -1.421875 27.875 -1.421875 
Q 17.96875 -1.421875 11.734375 6.484375 
Q 5.515625 14.40625 5.515625 27.296875 
Q 5.515625 40.1875 11.734375 48.09375 
Q 17.96875 56 27.875 56 
Q 33.9375 56 38.25 53.625 
Q 42.578125 51.265625 45.40625 46.390625 
z
M 14.796875 27.296875 
Q 14.796875 17.390625 18.875 11.75 
Q 22.953125 6.109375 30.078125 6.109375 
Q 37.203125 6.109375 41.296875 11.75 
Q 45.40625 17.390625 45.40625 27.296875 
Q 45.40625 37.203125 41.296875 42.84375 
Q 37.203125 48.484375 30.078125 48.484375 
Q 22.953125 48.484375 18.875 42.84375 
Q 14.796875 37.203125 14.796875 27.296875 
z
" id="DejaVuSans-100"/>
      <path d="M 18.3125 70.21875 
L 18.3125 54.6875 
L 36.8125 54.6875 
L 36.8125 47.703125 
L 18.3125 47.703125 
L 18.3125 18.015625 
Q 18.3125 11.328125 20.140625 9.421875 
Q 21.96875 7.515625 27.59375 7.515625 
L 36.8125 7.515625 
L 36.8125 0 
L 27.59375 0 
Q 17.1875 0 13.234375 3.875 
Q 9.28125 7.765625 9.28125 18.015625 
L 9.28125 47.703125 
L 2.6875 47.703125 
L 2.6875 54.6875 
L 9.28125 54.6875 
L 9.28125 70.21875 
z
" id="DejaVuSans-116"/>
      <path d="M 54.890625 33.015625 
L 54.890625 0 
L 45.90625 0 
L 45.90625 32.71875 
Q 45.90625 40.484375 42.875 44.328125 
Q 39.84375 48.1875 33.796875 48.1875 
Q 26.515625 48.1875 22.3125 43.546875 
Q 18.109375 38.921875 18.109375 30.90625 
L 18.109375 0 
L 9.078125 0 
L 9.078125 75.984375 
L 18.109375 75.984375 
L 18.109375 46.1875 
Q 21.34375 51.125 25.703125 53.5625 
Q 30.078125 56 35.796875 56 
Q 45.21875 56 50.046875 50.171875 
Q 54.890625 44.34375 54.890625 33.015625 
z
" id="DejaVuSans-104"/>
     </defs>
     <g style="fill:#262626;" transform="translate(190.353857 415.804062)scale(0.12 -0.12)">
      <use xlink:href="#DejaVuSans-119"/>
      <use x="81.787109" xlink:href="#DejaVuSans-105"/>
      <use x="109.570312" xlink:href="#DejaVuSans-100"/>
      <use x="173.046875" xlink:href="#DejaVuSans-116"/>
      <use x="212.255859" xlink:href="#DejaVuSans-104"/>
     </g>
    </g>
   </g>
   <g id="matplotlib.axis_2">
    <g id="ytick_1">
     <g id="line2d_7">
      <path clip-path="url(#p142c2b7a8a)" d="M 56.835 341.741246 
L 356.947714 341.741246 
" style="fill:none;stroke:#ffffff;stroke-linecap:round;"/>
     </g>
     <g id="text_8">
      <!-- 0 -->
      <g style="fill:#262626;" transform="translate(40.33625 345.920387)scale(0.11 -0.11)">
       <use xlink:href="#DejaVuSans-48"/>
      </g>
     </g>
    </g>
    <g id="ytick_2">
     <g id="line2d_8">
      <path clip-path="url(#p142c2b7a8a)" d="M 56.835 290.315898 
L 356.947714 290.315898 
" style="fill:none;stroke:#ffffff;stroke-linecap:round;"/>
     </g>
     <g id="text_9">
      <!-- 1000 -->
      <g style="fill:#262626;" transform="translate(19.34 294.495039)scale(0.11 -0.11)">
       <use xlink:href="#DejaVuSans-49"/>
       <use x="63.623047" xlink:href="#DejaVuSans-48"/>
       <use x="127.246094" xlink:href="#DejaVuSans-48"/>
       <use x="190.869141" xlink:href="#DejaVuSans-48"/>
      </g>
     </g>
    </g>
    <g id="ytick_3">
     <g id="line2d_9">
      <path clip-path="url(#p142c2b7a8a)" d="M 56.835 238.89055 
L 356.947714 238.89055 
" style="fill:none;stroke:#ffffff;stroke-linecap:round;"/>
     </g>
     <g id="text_10">
      <!-- 2000 -->
      <g style="fill:#262626;" transform="translate(19.34 243.06969)scale(0.11 -0.11)">
       <use xlink:href="#DejaVuSans-50"/>
       <use x="63.623047" xlink:href="#DejaVuSans-48"/>
       <use x="127.246094" xlink:href="#DejaVuSans-48"/>
       <use x="190.869141" xlink:href="#DejaVuSans-48"/>
      </g>
     </g>
    </g>
    <g id="ytick_4">
     <g id="line2d_10">
      <path clip-path="url(#p142c2b7a8a)" d="M 56.835 187.465202 
L 356.947714 187.465202 
" style="fill:none;stroke:#ffffff;stroke-linecap:round;"/>
     </g>
     <g id="text_11">
      <!-- 3000 -->
      <g style="fill:#262626;" transform="translate(19.34 191.644342)scale(0.11 -0.11)">
       <use xlink:href="#DejaVuSans-51"/>
       <use x="63.623047" xlink:href="#DejaVuSans-48"/>
       <use x="127.246094" xlink:href="#DejaVuSans-48"/>
       <use x="190.869141" xlink:href="#DejaVuSans-48"/>
      </g>
     </g>
    </g>
    <g id="ytick_5">
     <g id="line2d_11">
      <path clip-path="url(#p142c2b7a8a)" d="M 56.835 136.039853 
L 356.947714 136.039853 
" style="fill:none;stroke:#ffffff;stroke-linecap:round;"/>
     </g>
     <g id="text_12">
      <!-- 4000 -->
      <g style="fill:#262626;" transform="translate(19.34 140.218994)scale(0.11 -0.11)">
       <use xlink:href="#DejaVuSans-52"/>
       <use x="63.623047" xlink:href="#DejaVuSans-48"/>
       <use x="127.246094" xlink:href="#DejaVuSans-48"/>
       <use x="190.869141" xlink:href="#DejaVuSans-48"/>
      </g>
     </g>
    </g>
    <g id="ytick_6">
     <g id="line2d_12">
      <path clip-path="url(#p142c2b7a8a)" d="M 56.835 84.614505 
L 356.947714 84.614505 
" style="fill:none;stroke:#ffffff;stroke-linecap:round;"/>
     </g>
     <g id="text_13">
      <!-- 5000 -->
      <g style="fill:#262626;" transform="translate(19.34 88.793646)scale(0.11 -0.11)">
       <use xlink:href="#DejaVuSans-53"/>
       <use x="63.623047" xlink:href="#DejaVuSans-48"/>
       <use x="127.246094" xlink:href="#DejaVuSans-48"/>
       <use x="190.869141" xlink:href="#DejaVuSans-48"/>
      </g>
     </g>
    </g>
    <g id="text_14">
     <!-- height -->
     <defs>
      <path d="M 56.203125 29.59375 
L 56.203125 25.203125 
L 14.890625 25.203125 
Q 15.484375 15.921875 20.484375 11.0625 
Q 25.484375 6.203125 34.421875 6.203125 
Q 39.59375 6.203125 44.453125 7.46875 
Q 49.3125 8.734375 54.109375 11.28125 
L 54.109375 2.78125 
Q 49.265625 0.734375 44.1875 -0.34375 
Q 39.109375 -1.421875 33.890625 -1.421875 
Q 20.796875 -1.421875 13.15625 6.1875 
Q 5.515625 13.8125 5.515625 26.8125 
Q 5.515625 40.234375 12.765625 48.109375 
Q 20.015625 56 32.328125 56 
Q 43.359375 56 49.78125 48.890625 
Q 56.203125 41.796875 56.203125 29.59375 
z
M 47.21875 32.234375 
Q 47.125 39.59375 43.09375 43.984375 
Q 39.0625 48.390625 32.421875 48.390625 
Q 24.90625 48.390625 20.390625 44.140625 
Q 15.875 39.890625 15.1875 32.171875 
z
" id="DejaVuSans-101"/>
      <path d="M 45.40625 27.984375 
Q 45.40625 37.75 41.375 43.109375 
Q 37.359375 48.484375 30.078125 48.484375 
Q 22.859375 48.484375 18.828125 43.109375 
Q 14.796875 37.75 14.796875 27.984375 
Q 14.796875 18.265625 18.828125 12.890625 
Q 22.859375 7.515625 30.078125 7.515625 
Q 37.359375 7.515625 41.375 12.890625 
Q 45.40625 18.265625 45.40625 27.984375 
z
M 54.390625 6.78125 
Q 54.390625 -7.171875 48.1875 -13.984375 
Q 42 -20.796875 29.203125 -20.796875 
Q 24.46875 -20.796875 20.265625 -20.09375 
Q 16.0625 -19.390625 12.109375 -17.921875 
L 12.109375 -9.1875 
Q 16.0625 -11.328125 19.921875 -12.34375 
Q 23.78125 -13.375 27.78125 -13.375 
Q 36.625 -13.375 41.015625 -8.765625 
Q 45.40625 -4.15625 45.40625 5.171875 
L 45.40625 9.625 
Q 42.625 4.78125 38.28125 2.390625 
Q 33.9375 0 27.875 0 
Q 17.828125 0 11.671875 7.65625 
Q 5.515625 15.328125 5.515625 27.984375 
Q 5.515625 40.671875 11.671875 48.328125 
Q 17.828125 56 27.875 56 
Q 33.9375 56 38.28125 53.609375 
Q 42.625 51.21875 45.40625 46.390625 
L 45.40625 54.6875 
L 54.390625 54.6875 
z
" id="DejaVuSans-103"/>
     </defs>
     <g style="fill:#262626;" transform="translate(12.844375 248.553286)rotate(-90)scale(0.12 -0.12)">
      <use xlink:href="#DejaVuSans-104"/>
      <use x="63.378906" xlink:href="#DejaVuSans-101"/>
      <use x="124.902344" xlink:href="#DejaVuSans-105"/>
      <use x="152.685547" xlink:href="#DejaVuSans-103"/>
      <use x="216.162109" xlink:href="#DejaVuSans-104"/>
      <use x="279.541016" xlink:href="#DejaVuSans-116"/>
     </g>
    </g>
   </g>
   <g id="LineCollection_1">
    <path clip-path="url(#p142c2b7a8a)" d="M 85.488978 350.52409 
L 86.997082 351.088406 
L 88.505186 351.262054 
L 90.01329 351.178989 
L 91.521394 350.908327 
L 93.703124 350.224965 
L 94.537602 349.934542 
L 97.55381 348.52372 
L 100.570019 346.768841 
L 103.586227 344.698143 
L 106.602435 342.314683 
L 109.82825 339.453286 
L 112.94495 336.375664 
L 115.760709 333.298042 
L 119.597327 328.681608 
L 124.172926 322.526363 
L 127.715892 317.536019 
L 130.95523 313.293496 
L 133.748309 310.072784 
L 136.764517 307.066709 
L 148.30616 296.366573 
L 151.058318 293.28895 
L 153.458578 290.211328 
L 155.488595 287.133706 
L 157.116063 284.056083 
L 157.877974 282.132141 
L 158.246641 280.978461 
L 158.546709 279.43965 
L 158.593251 277.900838 
L 158.221351 276.362027 
L 157.877974 275.814695 
L 156.36987 274.770951 
L 154.861766 274.635733 
L 153.353662 274.875655 
L 151.845558 275.378781 
L 149.790535 276.362027 
L 148.82935 276.885403 
L 145.813141 278.907794 
L 142.796933 281.340089 
L 139.780725 284.106972 
L 135.256413 288.715116 
L 130.732101 293.389703 
L 127.484761 296.366573 
L 124.699684 298.546901 
L 121.079447 300.983006 
L 112.634851 306.196407 
L 108.110539 309.35329 
L 103.586227 312.994804 
L 99.905633 316.371118 
L 96.903541 319.448741 
L 94.200772 322.526363 
L 91.521394 325.937913 
L 89.565928 328.681608 
L 87.626756 331.75923 
L 85.488978 335.861745 
L 84.578797 337.914475 
L 83.552837 340.992098 
L 83.200807 342.530909 
L 82.987929 344.06972 
L 82.947024 345.608531 
L 83.144031 347.147342 
L 83.702349 348.686154 
L 83.980874 349.12457 
L 85.488978 350.52409 
L 85.488978 350.52409 
" style="fill:none;stroke:#4c72b0;stroke-width:1.5;"/>
    <path clip-path="url(#p142c2b7a8a)" d="M 188.040056 285.871453 
L 189.54816 286.058077 
L 191.056264 286.040265 
L 192.564368 285.858963 
L 195.580576 285.148841 
L 198.501187 284.056083 
L 200.104889 283.385893 
L 203.121097 281.844304 
L 207.645409 279.074826 
L 212.169721 275.863152 
L 218.202138 270.98274 
L 225.890308 264.051538 
L 249.872324 242.146625 
L 254.396636 237.552022 
L 258.307839 233.275314 
L 262.142474 228.65888 
L 266.461469 222.961381 
L 267.969573 220.817026 
L 270.027399 217.887202 
L 272.493885 214.224164 
L 275.550666 210.193146 
L 277.035021 208.654335 
L 279.099302 207.115523 
L 280.034406 206.590864 
L 282.61765 205.576712 
L 284.558718 205.066721 
L 289.08303 203.853196 
L 292.099238 202.869297 
L 298.131655 200.238926 
L 304.164071 196.759489 
L 311.704592 191.403942 
L 317.737008 186.374578 
L 322.26132 182.119635 
L 326.785632 177.463764 
L 330.549487 173.261677 
L 335.499207 167.106432 
L 340.907371 159.412376 
L 345.401032 151.71832 
L 347.615797 147.101887 
L 349.963134 140.946642 
L 350.770925 137.869019 
L 351.348479 134.791397 
L 351.554909 131.713775 
L 351.480657 130.174963 
L 351.251829 128.636152 
L 350.826915 127.097341 
L 350.153392 125.55853 
L 349.043194 124.019719 
L 347.89909 122.983985 
L 346.390986 122.108279 
L 344.882882 121.580366 
L 343.374777 121.306439 
L 341.866673 121.215405 
L 340.358569 121.26457 
L 337.342361 121.702544 
L 334.326153 122.560219 
L 331.309945 123.651794 
L 325.277528 126.594257 
L 319.245112 130.372293 
L 314.7208 133.636756 
L 308.688383 138.595216 
L 304.164071 142.795906 
L 299.639759 147.390823 
L 295.707564 151.71832 
L 291.915206 156.334754 
L 288.366909 160.951187 
L 282.142257 170.184055 
L 280.034406 173.620493 
L 275.510093 180.116054 
L 274.001989 181.695354 
L 272.493885 182.915236 
L 270.592508 184.033355 
L 267.969573 185.107314 
L 260.429052 187.886585 
L 255.801413 190.1886 
L 254.396636 190.925724 
L 249.872324 193.756607 
L 243.839907 198.19406 
L 237.807491 203.297949 
L 233.283179 207.579586 
L 228.758866 212.187378 
L 222.72645 218.673302 
L 200.104889 243.252855 
L 198.167439 245.585803 
L 193.463899 251.741048 
L 189.424975 257.896293 
L 187.620264 260.973915 
L 186.02659 264.051538 
L 184.660679 267.12916 
L 183.563767 270.206782 
L 182.446732 274.823216 
L 182.289846 276.362027 
L 182.256271 277.900838 
L 182.377279 279.43965 
L 182.708612 280.978461 
L 183.515744 282.798235 
L 184.502211 284.056083 
L 185.023848 284.524688 
L 186.531952 285.410442 
L 188.040056 285.871453 
L 188.040056 285.871453 
" style="fill:none;stroke:#4c72b0;stroke-width:1.5;"/>
    <path clip-path="url(#p142c2b7a8a)" d="M 160.894182 247.899601 
L 162.402286 248.373885 
L 163.910391 248.501664 
L 165.418495 248.393783 
L 166.926599 248.10706 
L 168.434703 247.66579 
L 171.450911 246.431591 
L 174.467119 244.830646 
L 178.991431 241.908933 
L 184.256236 237.891747 
L 186.531952 236.015715 
L 195.580576 228.021414 
L 201.770436 222.503635 
L 210.661617 214.787895 
L 215.755998 210.193146 
L 219.710242 206.335996 
L 223.329495 202.49909 
L 225.99562 199.421467 
L 230.266971 193.994007 
L 231.87691 191.727411 
L 233.959274 188.649789 
L 237.5649 182.494544 
L 240.823699 176.265934 
L 242.593305 173.261677 
L 243.839907 171.52268 
L 245.348011 169.879077 
L 246.856116 168.565152 
L 249.872324 166.593782 
L 252.888532 164.94007 
L 263.445261 159.00132 
L 267.969573 155.965756 
L 274.001989 151.362934 
L 280.617221 145.563075 
L 283.803722 142.485453 
L 287.574926 138.562907 
L 290.933969 134.791397 
L 295.965109 128.636152 
L 300.405889 122.480907 
L 305.163779 114.786851 
L 308.968682 107.092795 
L 310.171272 104.015173 
L 312.033655 97.859928 
L 312.56433 94.782306 
L 312.715516 91.704683 
L 312.619358 90.165872 
L 312.368445 88.627061 
L 311.704592 86.622222 
L 311.185448 85.549439 
L 310.017152 84.010627 
L 308.688383 82.894399 
L 307.180279 82.097391 
L 305.672175 81.615616 
L 304.164071 81.370632 
L 302.655967 81.298732 
L 301.147863 81.361812 
L 298.131655 81.823373 
L 295.115447 82.674272 
L 293.607342 83.172703 
L 289.08303 85.137956 
L 282.895721 88.627061 
L 280.034406 90.453268 
L 275.510093 93.696987 
L 268.610694 99.398739 
L 266.461469 101.34299 
L 261.937156 105.762601 
L 257.412844 110.571092 
L 253.761018 114.786851 
L 248.954127 120.942096 
L 244.708658 127.097341 
L 240.183894 134.791397 
L 237.20448 140.946642 
L 235.318029 145.563075 
L 233.283179 151.1169 
L 231.664244 154.795943 
L 230.266971 157.105293 
L 228.758866 158.947058 
L 227.250762 160.385256 
L 225.742658 161.606074 
L 222.72645 163.778729 
L 219.710242 165.843628 
L 215.18593 169.097505 
L 210.041903 173.261677 
L 207.645409 175.364292 
L 203.121097 179.693882 
L 198.596785 184.383507 
L 193.304673 190.1886 
L 185.023848 199.428539 
L 173.767884 211.731957 
L 169.942807 216.376857 
L 166.926599 220.363913 
L 165.418495 222.553111 
L 163.461721 225.581258 
L 161.709787 228.65888 
L 160.202915 231.736503 
L 158.976997 234.814125 
L 158.089942 237.891747 
L 157.642093 240.96937 
L 157.65378 242.508181 
L 157.890081 244.046992 
L 158.481136 245.585803 
L 159.705156 247.124615 
L 160.894182 247.899601 
L 160.894182 247.899601 
" style="fill:none;stroke:#4c72b0;stroke-width:1.5;"/>
   </g>
   <g id="LineCollection_2">
    <path clip-path="url(#p142c2b7a8a)" d="M 99.061915 334.331134 
L 100.570019 334.689374 
L 102.078123 334.216019 
L 103.586227 333.462087 
L 103.824219 333.298042 
L 105.094331 332.383943 
L 105.850136 331.75923 
L 106.602435 331.100688 
L 107.50155 330.220419 
L 108.110539 329.580011 
L 108.892725 328.681608 
L 109.618643 327.773617 
L 110.090531 327.142797 
L 111.126747 325.614324 
L 111.13344 325.603986 
L 111.885485 324.065174 
L 112.473518 322.526363 
L 112.634851 321.075411 
L 112.644095 320.987552 
L 112.634851 320.95921 
L 111.126747 319.723211 
L 109.618643 319.998221 
L 108.110539 320.641973 
L 107.543991 320.987552 
L 106.602435 321.585098 
L 105.331417 322.526363 
L 105.094331 322.71208 
L 103.586227 324.062918 
L 103.583979 324.065174 
L 102.157963 325.603986 
L 102.078123 325.698507 
L 100.967077 327.142797 
L 100.570019 327.72043 
L 99.956737 328.681608 
L 99.108579 330.220419 
L 99.061915 330.355135 
L 98.612097 331.75923 
L 98.515407 333.298042 
L 99.061915 334.331134 
" style="fill:none;stroke:#4c72b0;stroke-width:1.5;"/>
    <path clip-path="url(#p142c2b7a8a)" d="M 194.072472 276.942046 
L 195.580576 277.235766 
L 197.088681 277.234004 
L 198.596785 277.023764 
L 200.915754 276.362027 
L 201.612993 276.140684 
L 203.121097 275.536109 
L 206.137305 274.030122 
L 210.661617 271.199698 
L 215.18593 267.831211 
L 219.710242 264.02652 
L 225.742658 258.667672 
L 231.775075 253.235418 
L 245.695101 240.96937 
L 249.872324 236.934221 
L 253.354186 233.275314 
L 256.049969 230.197691 
L 259.781239 225.581258 
L 263.445261 220.355779 
L 265.008195 217.887202 
L 266.829519 214.809579 
L 269.221558 210.193146 
L 272.493885 202.45574 
L 273.548871 199.421467 
L 273.892436 197.882656 
L 273.914683 196.343845 
L 272.493885 194.735519 
L 270.985781 194.070521 
L 269.477677 193.605446 
L 267.370883 193.266223 
L 266.461469 193.195388 
L 264.421403 193.266223 
L 263.445261 193.354361 
L 260.429052 193.97019 
L 257.412844 195.012804 
L 254.396636 196.393309 
L 251.380428 198.049278 
L 248.36422 199.956557 
L 243.839907 203.286312 
L 239.315595 207.146918 
L 236.036365 210.193146 
L 231.775075 214.491155 
L 228.61474 217.887202 
L 212.169721 235.947412 
L 207.588821 240.96937 
L 203.121097 246.17444 
L 201.141035 248.663426 
L 197.813208 253.279859 
L 194.966488 257.896293 
L 193.368396 260.973915 
L 192.054367 264.051538 
L 191.093798 267.12916 
L 190.57054 270.206782 
L 190.558896 271.745594 
L 190.787257 273.284405 
L 191.407375 274.823216 
L 192.865649 276.362027 
L 194.072472 276.942046 
L 194.072472 276.942046 
" style="fill:none;stroke:#4c72b0;stroke-width:1.5;"/>
    <path clip-path="url(#p142c2b7a8a)" d="M 171.450911 235.392041 
L 172.959015 235.581224 
L 174.467119 235.373814 
L 176.224648 234.814125 
L 177.483327 234.279092 
L 180.499536 232.61871 
L 184.019816 230.197691 
L 186.531952 228.273069 
L 192.564368 223.260474 
L 199.005022 217.887202 
L 209.153513 209.638567 
L 213.72465 205.576712 
L 216.901643 202.49909 
L 219.798099 199.421467 
L 222.72645 195.983242 
L 224.827694 193.266223 
L 227.250762 189.694299 
L 228.807404 187.110978 
L 230.410405 184.033355 
L 231.775075 180.768088 
L 232.689827 177.878111 
L 233.024531 176.339299 
L 233.240113 174.800488 
L 233.283179 173.205427 
L 233.052346 171.722866 
L 232.159289 170.184055 
L 231.775075 169.86683 
L 230.266971 169.376823 
L 228.758866 169.370461 
L 227.250762 169.608873 
L 225.27752 170.184055 
L 222.72645 171.156738 
L 219.710242 172.676931 
L 216.305233 174.800488 
L 213.677826 176.668122 
L 210.290935 179.416922 
L 206.901323 182.494544 
L 203.821641 185.572167 
L 200.104889 189.615035 
L 196.9485 193.266223 
L 185.023848 207.298749 
L 178.991431 214.31068 
L 177.345339 216.348391 
L 174.467119 220.272034 
L 172.959015 222.586866 
L 171.301633 225.581258 
L 170.029746 228.65888 
L 169.621065 230.197691 
L 169.428655 231.736503 
L 169.559907 233.275314 
L 169.942807 234.190093 
L 170.452995 234.814125 
L 171.450911 235.392041 
L 171.450911 235.392041 
" style="fill:none;stroke:#4c72b0;stroke-width:1.5;"/>
    <path clip-path="url(#p142c2b7a8a)" d="M 286.066822 198.022504 
L 287.574926 198.052969 
L 290.591134 197.761746 
L 293.607342 197.092718 
L 296.623551 196.045027 
L 299.639759 194.69962 
L 302.655967 193.115744 
L 305.672175 191.315768 
L 310.196487 188.187133 
L 315.369268 184.033355 
L 317.737008 181.956493 
L 322.26132 177.582497 
L 326.312172 173.261677 
L 330.201211 168.645243 
L 334.784183 162.489999 
L 338.667215 156.334754 
L 341.866673 150.11146 
L 343.152002 147.101887 
L 344.635913 142.485453 
L 345.250296 139.407831 
L 345.412191 137.869019 
L 345.447132 136.330208 
L 345.32852 134.791397 
L 344.882882 132.8884 
L 344.419968 131.713775 
L 343.374777 130.164502 
L 341.866673 128.924399 
L 340.358569 128.236567 
L 338.850465 127.882677 
L 337.342361 127.763917 
L 335.834257 127.820911 
L 334.326153 128.021219 
L 331.309945 128.781314 
L 329.801841 129.268475 
L 326.785632 130.533298 
L 323.769424 132.061987 
L 320.753216 133.819964 
L 316.228904 136.881656 
L 311.077267 140.946642 
L 308.688383 143.004839 
L 304.164071 147.313714 
L 299.975417 151.71832 
L 296.014208 156.334754 
L 291.355979 162.489999 
L 287.371728 168.645243 
L 285.573372 171.722866 
L 283.050614 176.68408 
L 281.760445 179.416922 
L 281.074933 180.955733 
L 279.221848 185.572167 
L 277.628484 190.1886 
L 277.228501 191.727411 
L 277.018197 193.266223 
L 277.328161 194.805034 
L 279.446641 196.343845 
L 281.54251 197.140986 
L 283.050614 197.576032 
L 284.725542 197.882656 
L 286.066822 198.022504 
L 286.066822 198.022504 
" style="fill:none;stroke:#4c72b0;stroke-width:1.5;"/>
    <path clip-path="url(#p142c2b7a8a)" d="M 243.839907 160.999905 
L 245.749398 160.951187 
L 248.36422 160.615355 
L 251.380428 159.893787 
L 255.90474 158.314966 
L 260.429052 156.192552 
L 263.445261 154.529961 
L 266.461469 152.667628 
L 272.493885 148.299545 
L 277.574241 144.024264 
L 280.885684 140.946642 
L 283.950643 137.869019 
L 287.574926 133.910816 
L 289.455837 131.713775 
L 294.273889 125.55853 
L 298.394606 119.403285 
L 300.237514 116.325663 
L 302.655967 111.577753 
L 303.347214 110.170418 
L 305.138926 105.553984 
L 306.015219 102.476362 
L 306.595284 99.398739 
L 306.730491 97.859928 
L 306.746643 96.321117 
L 306.614389 94.782306 
L 306.283142 93.243495 
L 305.669425 91.704683 
L 304.612456 90.165872 
L 304.164071 89.710144 
L 302.574529 88.627061 
L 301.147863 88.071737 
L 299.639759 87.779561 
L 298.131655 87.700573 
L 296.623551 87.784087 
L 295.115447 88.003055 
L 292.099238 88.785365 
L 290.591134 89.277647 
L 287.574926 90.545755 
L 284.558718 92.070942 
L 281.54251 93.819915 
L 277.018197 96.858554 
L 270.985781 101.602397 
L 266.461469 105.71098 
L 261.937156 110.2648 
L 257.848958 114.786851 
L 254.12183 119.403285 
L 250.736629 124.019719 
L 246.856116 130.206262 
L 245.147338 133.252586 
L 243.617876 136.330208 
L 242.296993 139.407831 
L 241.13505 142.485453 
L 239.841388 147.101887 
L 239.315595 150.230059 
L 239.049699 153.257131 
L 239.0586 154.795943 
L 239.315595 156.971543 
L 239.533741 157.873565 
L 240.304728 159.412376 
L 240.823699 159.982489 
L 242.331803 160.760694 
L 243.839907 160.999905 
L 243.839907 160.999905 
" style="fill:none;stroke:#4c72b0;stroke-width:1.5;"/>
   </g>
   <g id="LineCollection_3">
    <path clip-path="url(#p142c2b7a8a)" d="M 200.104889 270.618173 
L 201.612993 270.646368 
L 203.747251 270.206782 
L 204.629201 269.952012 
L 206.137305 269.357063 
L 209.153513 267.810658 
L 212.583344 265.590349 
L 215.18593 263.685826 
L 219.710242 259.996202 
L 236.421891 245.585803 
L 242.331803 240.536052 
L 246.856116 236.331614 
L 249.888755 233.275314 
L 252.888532 229.994113 
L 255.90474 226.350594 
L 257.650153 224.042447 
L 260.429052 219.922216 
L 261.66768 217.887202 
L 264.053854 213.270768 
L 265.279816 210.193146 
L 265.768712 208.654335 
L 266.140821 207.115523 
L 266.380679 205.576712 
L 266.446504 204.037901 
L 266.250028 202.49909 
L 265.609465 200.960279 
L 264.953365 200.167587 
L 263.445261 199.184735 
L 261.937156 198.80305 
L 260.429052 198.734148 
L 258.920948 198.886361 
L 256.77194 199.421467 
L 255.90474 199.676197 
L 254.396636 200.248643 
L 251.380428 201.708064 
L 247.605055 204.037901 
L 245.348011 205.632627 
L 242.331803 207.985576 
L 238.123822 211.731957 
L 234.988179 214.809579 
L 231.775075 218.190809 
L 226.550134 224.042447 
L 219.710242 231.893952 
L 207.529736 245.585803 
L 203.916006 250.202237 
L 201.612993 253.592884 
L 199.954523 256.357482 
L 198.421575 259.435104 
L 197.287544 262.512726 
L 196.911342 264.051538 
L 196.716787 265.590349 
L 196.765448 267.12916 
L 197.211672 268.667971 
L 198.730283 270.206782 
L 200.104889 270.618173 
L 200.104889 270.618173 
" style="fill:none;stroke:#4c72b0;stroke-width:1.5;"/>
    <path clip-path="url(#p142c2b7a8a)" d="M 188.040056 217.255962 
L 189.54816 216.881448 
L 190.789428 216.348391 
L 191.056264 216.235745 
L 192.564368 215.386819 
L 193.579658 214.809579 
L 194.072472 214.537386 
L 195.580576 213.636015 
L 196.162186 213.270768 
L 197.088681 212.708133 
L 198.596785 211.791009 
L 198.685029 211.731957 
L 200.104889 210.813584 
L 201.048725 210.193146 
L 201.612993 209.833829 
L 203.121097 208.827922 
L 203.363574 208.654335 
L 204.629201 207.772305 
L 205.530658 207.115523 
L 206.137305 206.682725 
L 207.609821 205.576712 
L 207.645409 205.550349 
L 209.153513 204.351517 
L 209.527259 204.037901 
L 210.661617 203.08947 
L 211.331559 202.49909 
L 212.169721 201.75625 
L 213.02404 200.960279 
L 213.677826 200.341482 
L 214.606738 199.421467 
L 215.18593 198.832477 
L 216.084203 197.882656 
L 216.694034 197.213141 
L 217.4615 196.343845 
L 218.202138 195.462669 
L 218.742733 194.805034 
L 219.710242 193.553951 
L 219.930027 193.266223 
L 221.016104 191.727411 
L 221.218346 191.412796 
L 222.002519 190.1886 
L 222.72645 188.93976 
L 222.89593 188.649789 
L 223.662843 187.110978 
L 224.234554 185.776628 
L 224.323787 185.572167 
L 224.809745 184.033355 
L 225.110935 182.494544 
L 225.129042 180.955733 
L 224.610681 179.416922 
L 224.234554 178.981584 
L 222.72645 178.313422 
L 221.218346 178.335296 
L 219.710242 178.694489 
L 218.202138 179.264183 
L 217.906192 179.416922 
L 216.694034 180.026051 
L 215.18593 180.910814 
L 215.120733 180.955733 
L 213.677826 181.936486 
L 212.936944 182.494544 
L 212.169721 183.070649 
L 210.994872 184.033355 
L 210.661617 184.308255 
L 209.236294 185.572167 
L 209.153513 185.646728 
L 207.645409 187.086314 
L 207.620675 187.110978 
L 206.137305 188.624993 
L 206.113729 188.649789 
L 204.6944 190.1886 
L 204.629201 190.261909 
L 203.348283 191.727411 
L 203.121097 191.997989 
L 202.061885 193.266223 
L 201.612993 193.827107 
L 200.825716 194.805034 
L 200.104889 195.740141 
L 199.632007 196.343845 
L 198.596785 197.722891 
L 198.473825 197.882656 
L 197.354635 199.421467 
L 197.088681 199.805997 
L 196.261141 200.960279 
L 195.580576 201.945717 
L 195.182022 202.49909 
L 194.114266 204.037901 
L 194.072472 204.103587 
L 193.085842 205.576712 
L 192.564368 206.376283 
L 192.056168 207.115523 
L 191.056264 208.603944 
L 191.020638 208.654335 
L 190.06128 210.193146 
L 189.54816 211.042691 
L 189.109504 211.731957 
L 188.206513 213.270768 
L 188.040056 213.645661 
L 187.497676 214.809579 
L 187.090853 216.348391 
L 188.040056 217.255962 
" style="fill:none;stroke:#4c72b0;stroke-width:1.5;"/>
    <path clip-path="url(#p142c2b7a8a)" d="M 289.08303 193.491776 
L 290.591134 193.665084 
L 292.099238 193.640644 
L 294.452893 193.266223 
L 295.115447 193.139816 
L 298.131655 192.213991 
L 301.147863 190.922976 
L 305.672175 188.413929 
L 308.688383 186.4507 
L 313.212696 183.036325 
L 317.737008 179.099338 
L 320.753216 176.174309 
L 323.769424 173.008718 
L 326.785632 169.560166 
L 328.777944 167.106432 
L 332.176525 162.489999 
L 335.138278 157.873565 
L 337.63502 153.257131 
L 339.027849 150.179509 
L 340.176165 147.101887 
L 341.036959 144.024264 
L 341.318014 142.485453 
L 341.484494 140.946642 
L 341.516795 139.407831 
L 341.375863 137.869019 
L 340.992695 136.330208 
L 340.241664 134.791397 
L 338.760859 133.252586 
L 337.342361 132.500476 
L 335.834257 132.106797 
L 334.326153 131.987415 
L 332.818049 132.062698 
L 331.309945 132.289559 
L 329.801841 132.648504 
L 326.785632 133.686691 
L 323.769424 135.072846 
L 320.753216 136.735375 
L 316.693569 139.407831 
L 314.599002 140.946642 
L 311.704592 143.214032 
L 307.180279 147.263081 
L 304.164071 150.253737 
L 301.147863 153.489602 
L 298.131655 157.024375 
L 296.244025 159.412376 
L 292.922071 164.02881 
L 290.033551 168.645243 
L 287.574926 173.328097 
L 286.20642 176.339299 
L 284.558718 181.059498 
L 284.165887 182.494544 
L 283.861824 184.033355 
L 283.685023 185.572167 
L 283.665715 187.110978 
L 283.865229 188.649789 
L 284.558718 190.459187 
L 285.510882 191.727411 
L 286.066822 192.203595 
L 287.574926 193.055095 
L 289.08303 193.491776 
L 289.08303 193.491776 
" style="fill:none;stroke:#4c72b0;stroke-width:1.5;"/>
    <path clip-path="url(#p142c2b7a8a)" d="M 246.856116 155.317269 
L 248.36422 155.794516 
L 249.872324 155.960402 
L 251.380428 155.921448 
L 252.888532 155.731401 
L 254.396636 155.414812 
L 257.412844 154.471308 
L 260.429052 153.188119 
L 263.290419 151.71832 
L 264.953365 150.801828 
L 269.477677 147.842801 
L 274.399665 144.024264 
L 277.018197 141.792608 
L 281.54251 137.478833 
L 285.515474 133.252586 
L 289.08303 128.995641 
L 290.591134 127.040135 
L 292.836829 124.019719 
L 295.862294 119.403285 
L 298.44387 114.786851 
L 299.915073 111.709229 
L 301.147863 108.593894 
L 302.135218 105.553984 
L 302.751493 102.476362 
L 302.918435 100.937551 
L 302.942435 99.398739 
L 302.655967 97.27733 
L 302.409554 96.321117 
L 301.672112 94.782306 
L 301.147863 94.085511 
L 299.639759 92.813743 
L 298.131655 92.162625 
L 296.623551 91.864659 
L 295.115447 91.804458 
L 293.607342 91.916798 
L 292.099238 92.166964 
L 290.591134 92.540562 
L 287.574926 93.603361 
L 284.558718 94.996877 
L 281.54251 96.653862 
L 278.526302 98.554947 
L 273.249945 102.476362 
L 270.985781 104.347191 
L 266.327248 108.631607 
L 263.294606 111.709229 
L 259.166788 116.325663 
L 255.489974 120.942096 
L 252.235635 125.55853 
L 249.413814 130.174963 
L 247.041691 134.791397 
L 245.145226 139.407831 
L 244.196815 142.485453 
L 243.579054 145.563075 
L 243.411334 147.101887 
L 243.373203 148.640698 
L 243.495668 150.179509 
L 243.839907 151.72558 
L 244.53439 153.257131 
L 245.348011 154.282151 
L 245.98356 154.795943 
L 246.856116 155.317269 
L 246.856116 155.317269 
" style="fill:none;stroke:#4c72b0;stroke-width:1.5;"/>
   </g>
   <g id="LineCollection_4">
    <path clip-path="url(#p142c2b7a8a)" d="M 206.137305 264.12384 
L 207.645409 263.821352 
L 209.153513 263.27514 
L 210.77074 262.512726 
L 213.677826 260.760525 
L 216.694034 258.589203 
L 221.362547 254.81867 
L 232.525812 245.585803 
L 239.315595 240.109277 
L 243.839907 236.158784 
L 246.856116 233.275314 
L 249.872324 230.118703 
L 252.888532 226.590823 
L 254.849414 224.042447 
L 257.412844 220.196229 
L 258.755512 217.887202 
L 260.429052 214.322948 
L 260.853416 213.270768 
L 261.34434 211.731957 
L 261.702535 210.193146 
L 261.895042 208.654335 
L 261.844863 207.115523 
L 261.385838 205.576712 
L 260.429052 204.319941 
L 260.013373 204.037901 
L 258.920948 203.559662 
L 257.412844 203.367259 
L 255.90474 203.48834 
L 253.805289 204.037901 
L 252.888532 204.340201 
L 250.232585 205.576712 
L 249.872324 205.752812 
L 246.856116 207.581141 
L 243.315007 210.193146 
L 240.823699 212.270364 
L 237.807491 215.072714 
L 234.791283 218.143668 
L 230.849585 222.503635 
L 221.796373 233.275314 
L 217.831321 237.891747 
L 210.661617 246.296966 
L 208.81436 248.663426 
L 206.662498 251.741048 
L 204.842142 254.81867 
L 203.487643 257.896293 
L 203.033056 259.435104 
L 202.849161 260.973915 
L 203.121097 262.654691 
L 204.629201 264.003829 
L 206.137305 264.12384 
L 206.137305 264.12384 
" style="fill:none;stroke:#4c72b0;stroke-width:1.5;"/>
    <path clip-path="url(#p142c2b7a8a)" d="M 293.607342 190.256107 
L 295.115447 190.165682 
L 296.623551 189.918851 
L 298.131655 189.538564 
L 301.147863 188.419127 
L 304.164071 186.941099 
L 307.180279 185.169348 
L 311.006545 182.494544 
L 313.212696 180.776935 
L 316.587093 177.878111 
L 319.818897 174.800488 
L 322.745768 171.722866 
L 325.400648 168.645243 
L 328.293737 164.970074 
L 330.075773 162.489999 
L 332.09795 159.412376 
L 334.685217 154.795943 
L 336.109404 151.71832 
L 337.246562 148.640698 
L 338.063727 145.563075 
L 338.298065 144.024264 
L 338.393601 142.485453 
L 338.31191 140.946642 
L 337.981891 139.407831 
L 337.269986 137.869019 
L 335.713193 136.330208 
L 334.326153 135.691119 
L 332.818049 135.392214 
L 331.309945 135.36294 
L 329.801841 135.528782 
L 328.293737 135.852189 
L 325.277528 136.859337 
L 322.26132 138.259061 
L 319.245112 139.970547 
L 314.7208 143.06945 
L 310.196487 146.762495 
L 306.525483 150.179509 
L 303.544086 153.257131 
L 300.833731 156.334754 
L 297.178563 160.951187 
L 294.021673 165.567621 
L 291.337418 170.184055 
L 289.205811 174.800488 
L 288.100594 177.878111 
L 287.377016 180.955733 
L 287.183228 182.494544 
L 287.155065 184.033355 
L 287.346246 185.572167 
L 287.866871 187.110978 
L 289.08303 188.751199 
L 290.591134 189.690685 
L 292.099238 190.129018 
L 293.607342 190.256107 
L 293.607342 190.256107 
" style="fill:none;stroke:#4c72b0;stroke-width:1.5;"/>
    <path clip-path="url(#p142c2b7a8a)" d="M 249.872324 151.918766 
L 251.380428 152.382405 
L 252.888532 152.527837 
L 254.396636 152.45481 
L 255.90474 152.214617 
L 258.920948 151.355101 
L 261.937156 150.090244 
L 264.953365 148.518984 
L 267.969573 146.682217 
L 272.493885 143.428016 
L 277.018197 139.596547 
L 280.456374 136.330208 
L 283.393056 133.252586 
L 286.066822 130.170006 
L 289.08303 126.394954 
L 290.811436 124.019719 
L 292.885209 120.942096 
L 295.567891 116.325663 
L 297.078411 113.24804 
L 298.321696 110.170418 
L 299.281835 107.092795 
L 299.846462 104.015173 
L 299.943315 102.476362 
L 299.865392 100.937551 
L 299.554998 99.398739 
L 298.880699 97.859928 
L 298.131655 96.876422 
L 297.499674 96.321117 
L 296.623551 95.758949 
L 295.115447 95.23076 
L 293.607342 95.03928 
L 292.099238 95.076212 
L 290.591134 95.282929 
L 289.08303 95.630988 
L 286.066822 96.678648 
L 283.050614 98.092331 
L 280.034406 99.797879 
L 276.074633 102.476362 
L 274.001989 104.046224 
L 270.321666 107.092795 
L 267.969573 109.23256 
L 263.983238 113.24804 
L 261.217366 116.325663 
L 258.700716 119.403285 
L 255.278524 124.019719 
L 252.339233 128.636152 
L 249.909711 133.252586 
L 247.979836 137.869019 
L 247.085478 140.946642 
L 246.569902 144.024264 
L 246.506557 145.563075 
L 246.623057 147.101887 
L 246.988741 148.640698 
L 247.771961 150.179509 
L 248.36422 150.878855 
L 249.872324 151.918766 
L 249.872324 151.918766 
" style="fill:none;stroke:#4c72b0;stroke-width:1.5;"/>
   </g>
   <g id="LineCollection_5">
    <path clip-path="url(#p142c2b7a8a)" d="M 213.677826 251.922862 
L 215.18593 252.709661 
L 216.694034 252.220401 
L 217.633326 251.741048 
L 218.202138 251.448505 
L 219.710242 250.521205 
L 220.178393 250.202237 
L 221.218346 249.500742 
L 222.456044 248.663426 
L 222.72645 248.483368 
L 224.234554 247.419491 
L 224.641426 247.124615 
L 225.742658 246.346546 
L 226.830588 245.585803 
L 227.250762 245.300367 
L 228.758866 244.253921 
L 229.045741 244.046992 
L 230.266971 243.19383 
L 231.241136 242.508181 
L 231.775075 242.144057 
L 233.283179 241.087591 
L 233.442752 240.96937 
L 234.791283 239.99874 
L 235.554423 239.430559 
L 236.299387 238.88938 
L 237.616777 237.891747 
L 237.807491 237.750017 
L 239.315595 236.564574 
L 239.570982 236.352936 
L 240.823699 235.325002 
L 241.416434 234.814125 
L 242.331803 234.02637 
L 243.16322 233.275314 
L 243.839907 232.659302 
L 244.808308 231.736503 
L 245.348011 231.213037 
L 246.352808 230.197691 
L 246.856116 229.674505 
L 247.799932 228.65888 
L 248.36422 228.027243 
L 249.153253 227.120069 
L 249.872324 226.250079 
L 250.415367 225.581258 
L 251.380428 224.31547 
L 251.586946 224.042447 
L 252.661326 222.503635 
L 252.888532 222.146432 
L 253.641152 220.964824 
L 254.396636 219.651218 
L 254.527871 219.426013 
L 255.292553 217.887202 
L 255.90474 216.456232 
L 255.951996 216.348391 
L 256.441954 214.809579 
L 256.75004 213.270768 
L 256.789667 211.731957 
L 256.350044 210.193146 
L 255.90474 209.609168 
L 254.396636 208.811801 
L 252.888532 208.765389 
L 251.380428 209.080506 
L 249.872324 209.613119 
L 248.635343 210.193146 
L 248.36422 210.316968 
L 246.856116 211.175995 
L 246.007568 211.731957 
L 245.348011 212.157858 
L 243.839907 213.24778 
L 243.811172 213.270768 
L 242.331803 214.450632 
L 241.914258 214.809579 
L 240.823699 215.752697 
L 240.175551 216.348391 
L 239.315595 217.150061 
L 238.561362 217.887202 
L 237.807491 218.63999 
L 237.046824 219.426013 
L 236.299387 220.219989 
L 235.613344 220.964824 
L 234.791283 221.886737 
L 234.246741 222.503635 
L 233.283179 223.634956 
L 232.935853 224.042447 
L 231.775075 225.456355 
L 231.671436 225.581258 
L 230.448098 227.120069 
L 230.266971 227.358078 
L 229.254902 228.65888 
L 228.758866 229.321272 
L 228.082668 230.197691 
L 227.250762 231.313986 
L 226.924393 231.736503 
L 225.774248 233.275314 
L 225.742658 233.32009 
L 224.641021 234.814125 
L 224.234554 235.379643 
L 223.502129 236.352936 
L 222.72645 237.406498 
L 222.352718 237.891747 
L 221.218346 239.393984 
L 221.189551 239.430559 
L 220.055797 240.96937 
L 219.710242 241.450643 
L 218.921023 242.508181 
L 218.202138 243.495916 
L 217.789084 244.046992 
L 216.694034 245.554766 
L 216.671053 245.585803 
L 215.69444 247.124615 
L 215.18593 247.980722 
L 214.779534 248.663426 
L 214.056899 250.202237 
L 213.677826 251.557276 
L 213.627999 251.741048 
L 213.677826 251.922862 
" style="fill:none;stroke:#4c72b0;stroke-width:1.5;"/>
    <path clip-path="url(#p142c2b7a8a)" d="M 293.607342 186.32949 
L 295.115447 186.718005 
L 296.623551 186.774532 
L 298.131655 186.606602 
L 299.639759 186.268009 
L 301.147863 185.780687 
L 301.643198 185.572167 
L 302.655967 185.1843 
L 304.164071 184.483501 
L 304.983187 184.033355 
L 305.672175 183.682993 
L 307.180279 182.799008 
L 307.640498 182.494544 
L 308.688383 181.841943 
L 309.944558 180.955733 
L 310.196487 180.786409 
L 311.704592 179.674549 
L 312.025817 179.416922 
L 313.212696 178.494233 
L 313.941017 177.878111 
L 314.7208 177.23102 
L 315.721185 176.339299 
L 316.228904 175.890015 
L 317.389954 174.800488 
L 317.737008 174.473286 
L 318.964433 173.261677 
L 319.245112 172.979958 
L 320.456601 171.722866 
L 320.753216 171.406133 
L 321.874278 170.184055 
L 322.26132 169.74461 
L 323.22176 168.645243 
L 323.769424 167.984402 
L 324.500204 167.106432 
L 325.277528 166.109989 
L 325.707783 165.567621 
L 326.785632 164.100244 
L 326.839655 164.02881 
L 327.940901 162.489999 
L 328.293737 161.94923 
L 328.974221 160.951187 
L 329.801841 159.597029 
L 329.921241 159.412376 
L 330.835277 157.873565 
L 331.309945 156.969923 
L 331.668217 156.334754 
L 332.434571 154.795943 
L 332.818049 153.911083 
L 333.126891 153.257131 
L 333.745121 151.71832 
L 334.258613 150.179509 
L 334.326153 149.919396 
L 334.6939 148.640698 
L 335.003752 147.101887 
L 335.167238 145.563075 
L 335.146076 144.024264 
L 334.865333 142.485453 
L 334.326153 141.220647 
L 334.163907 140.946642 
L 332.818049 139.639552 
L 332.360237 139.407831 
L 331.309945 139.007664 
L 329.801841 138.804268 
L 328.293737 138.870742 
L 326.785632 139.13735 
L 325.859768 139.407831 
L 325.277528 139.561072 
L 323.769424 140.09865 
L 322.26132 140.765691 
L 321.918338 140.946642 
L 320.753216 141.512647 
L 319.245112 142.371547 
L 319.067467 142.485453 
L 317.737008 143.284619 
L 316.656908 144.024264 
L 316.228904 144.302135 
L 314.7208 145.38961 
L 314.499167 145.563075 
L 313.212696 146.534337 
L 312.525808 147.101887 
L 311.704592 147.764274 
L 310.698736 148.640698 
L 310.196487 149.073032 
L 308.991098 150.179509 
L 308.688383 150.45733 
L 307.383315 151.71832 
L 307.180279 151.916824 
L 305.861446 153.257131 
L 305.672175 153.454113 
L 304.416052 154.795943 
L 304.164071 155.074926 
L 303.041422 156.334754 
L 302.655967 156.788497 
L 301.735088 157.873565 
L 301.147863 158.608175 
L 300.497567 159.412376 
L 299.639759 160.552291 
L 299.332309 160.951187 
L 298.231455 162.489999 
L 298.131655 162.639026 
L 297.164073 164.02881 
L 296.623551 164.890292 
L 296.176166 165.567621 
L 295.261156 167.106432 
L 295.115447 167.375781 
L 294.381528 168.645243 
L 293.607342 170.182251 
L 293.606359 170.184055 
L 292.857381 171.722866 
L 292.21966 173.261677 
L 292.099238 173.606326 
L 291.639409 174.800488 
L 291.163709 176.339299 
L 290.801938 177.878111 
L 290.591134 179.264286 
L 290.565075 179.416922 
L 290.488937 180.955733 
L 290.591134 182.051665 
L 290.639402 182.494544 
L 291.150353 184.033355 
L 292.099238 185.367616 
L 292.332577 185.572167 
L 293.607342 186.32949 
" style="fill:none;stroke:#4c72b0;stroke-width:1.5;"/>
    <path clip-path="url(#p142c2b7a8a)" d="M 252.888532 148.704632 
L 254.396636 149.085932 
L 255.90474 149.153003 
L 257.412844 148.998219 
L 259.001565 148.640698 
L 260.429052 148.220301 
L 263.445261 146.966623 
L 266.461469 145.359367 
L 269.477677 143.448577 
L 274.001989 140.029766 
L 278.151055 136.330208 
L 280.034406 134.478336 
L 283.050614 131.251162 
L 285.288868 128.636152 
L 287.662194 125.55853 
L 289.845262 122.480907 
L 292.644219 117.864474 
L 294.19997 114.786851 
L 295.46561 111.709229 
L 296.390254 108.631607 
L 296.867772 105.553984 
L 296.866743 104.015173 
L 296.623551 102.445365 
L 296.017779 100.937551 
L 295.115447 99.771175 
L 294.652558 99.398739 
L 293.607342 98.800806 
L 292.099238 98.394656 
L 290.591134 98.312888 
L 289.08303 98.453665 
L 287.574926 98.765057 
L 284.558718 99.788769 
L 281.54251 101.22566 
L 278.526302 102.991123 
L 274.876643 105.553984 
L 272.493885 107.423634 
L 269.367289 110.170418 
L 266.19884 113.24804 
L 263.353962 116.325663 
L 260.429052 119.822579 
L 258.401582 122.480907 
L 255.318641 127.097341 
L 252.888532 131.53884 
L 252.058896 133.252586 
L 250.849817 136.330208 
L 250.002717 139.407831 
L 249.738299 140.946642 
L 249.617044 142.485453 
L 249.685028 144.024264 
L 250.019643 145.563075 
L 250.81497 147.101887 
L 251.380428 147.739231 
L 252.888532 148.704632 
L 252.888532 148.704632 
" style="fill:none;stroke:#4c72b0;stroke-width:1.5;"/>
   </g>
   <g id="LineCollection_6">
    <path clip-path="url(#p142c2b7a8a)" d="M 231.775075 236.444077 
L 232.12209 236.352936 
L 233.283179 236.051473 
L 234.791283 235.39709 
L 235.91038 234.814125 
L 236.299387 234.612254 
L 237.807491 233.66645 
L 238.366609 233.275314 
L 239.315595 232.608128 
L 240.467032 231.736503 
L 240.823699 231.46211 
L 242.331803 230.207618 
L 242.342695 230.197691 
L 243.839907 228.796578 
L 243.978741 228.65888 
L 245.348011 227.247522 
L 245.465362 227.120069 
L 246.804793 225.581258 
L 246.856116 225.517133 
L 247.973024 224.042447 
L 248.36422 223.479227 
L 249.01238 222.503635 
L 249.872324 221.068144 
L 249.932234 220.964824 
L 250.600482 219.426013 
L 251.080361 217.887202 
L 251.169903 216.348391 
L 249.951586 214.809579 
L 249.872324 214.775778 
L 248.36422 214.809579 
L 246.856116 215.359503 
L 245.348011 216.119216 
L 244.99969 216.348391 
L 243.839907 217.126262 
L 242.836418 217.887202 
L 242.331803 218.281094 
L 241.004073 219.426013 
L 240.823699 219.587528 
L 239.401814 220.964824 
L 239.315595 221.052195 
L 237.965721 222.503635 
L 237.807491 222.68267 
L 236.654436 224.042447 
L 236.299387 224.484797 
L 235.440834 225.581258 
L 234.791283 226.459259 
L 234.306946 227.120069 
L 233.283179 228.597802 
L 233.240657 228.65888 
L 232.328198 230.197691 
L 231.775075 231.205176 
L 231.477304 231.736503 
L 230.812353 233.275314 
L 230.330886 234.814125 
L 231.287526 236.352936 
L 231.775075 236.444077 
" style="fill:none;stroke:#4c72b0;stroke-width:1.5;"/>
    <path clip-path="url(#p142c2b7a8a)" d="M 295.115447 182.901574 
L 296.623551 183.607298 
L 298.131655 183.808051 
L 299.639759 183.704536 
L 301.147863 183.393388 
L 302.655967 182.918125 
L 303.668138 182.494544 
L 304.164071 182.301988 
L 305.672175 181.581103 
L 306.779119 180.955733 
L 307.180279 180.741947 
L 308.688383 179.820087 
L 309.27247 179.416922 
L 310.196487 178.805066 
L 311.447615 177.878111 
L 311.704592 177.693242 
L 313.212696 176.506659 
L 313.410296 176.339299 
L 314.7208 175.243114 
L 315.213856 174.800488 
L 316.228904 173.88965 
L 316.889585 173.261677 
L 317.737008 172.446774 
L 318.457006 171.722866 
L 319.245112 170.911443 
L 319.929589 170.184055 
L 320.753216 169.276827 
L 321.315894 168.645243 
L 322.26132 167.531828 
L 322.620324 167.106432 
L 323.769424 165.660309 
L 323.843555 165.567621 
L 325.009445 164.02881 
L 325.277528 163.64692 
L 326.10689 162.489999 
L 326.785632 161.450427 
L 327.12274 160.951187 
L 328.067509 159.412376 
L 328.293737 159.004606 
L 328.952126 157.873565 
L 329.739738 156.334754 
L 329.801841 156.196241 
L 330.470039 154.795943 
L 331.093337 153.257131 
L 331.309945 152.604955 
L 331.627788 151.71832 
L 332.044467 150.179509 
L 332.320592 148.640698 
L 332.422872 147.101887 
L 332.279755 145.563075 
L 331.748978 144.024264 
L 331.309945 143.373843 
L 330.290454 142.485453 
L 329.801841 142.208355 
L 328.293737 141.81744 
L 326.785632 141.792574 
L 325.277528 142.013639 
L 323.769424 142.4235 
L 323.611094 142.485453 
L 322.26132 142.973034 
L 320.753216 143.649948 
L 320.060099 144.024264 
L 319.245112 144.437404 
L 317.737008 145.32548 
L 317.380895 145.563075 
L 316.228904 146.296811 
L 315.10662 147.101887 
L 314.7208 147.369314 
L 313.212696 148.523072 
L 313.070127 148.640698 
L 311.704592 149.747955 
L 311.211573 150.179509 
L 310.196487 151.06334 
L 309.490374 151.71832 
L 308.688383 152.467279 
L 307.88402 153.257131 
L 307.180279 153.961324 
L 306.376686 154.795943 
L 305.672175 155.550663 
L 304.957872 156.334754 
L 304.164071 157.244486 
L 303.621488 157.873565 
L 302.655967 159.05661 
L 302.365295 159.412376 
L 301.186993 160.951187 
L 301.147863 161.005354 
L 300.058539 162.489999 
L 299.639759 163.113466 
L 299.007261 164.02881 
L 298.131655 165.430331 
L 298.042288 165.567621 
L 297.126621 167.106432 
L 296.623551 168.059856 
L 296.296967 168.645243 
L 295.543653 170.184055 
L 295.115447 171.197339 
L 294.877148 171.722866 
L 294.299433 173.261677 
L 293.836497 174.800488 
L 293.607342 175.8591 
L 293.494009 176.339299 
L 293.310302 177.878111 
L 293.33855 179.416922 
L 293.607342 180.699753 
L 293.67813 180.955733 
L 294.656927 182.494544 
L 295.115447 182.901574 
" style="fill:none;stroke:#4c72b0;stroke-width:1.5;"/>
    <path clip-path="url(#p142c2b7a8a)" d="M 255.90474 146.161104 
L 257.412844 146.341126 
L 258.920948 146.24415 
L 260.429052 145.946137 
L 261.661791 145.563075 
L 261.937156 145.485188 
L 263.445261 144.911274 
L 264.953365 144.209215 
L 265.288725 144.024264 
L 266.461469 143.422585 
L 267.969573 142.521507 
L 268.023598 142.485453 
L 269.477677 141.56706 
L 270.347777 140.946642 
L 270.985781 140.510896 
L 272.436247 139.407831 
L 272.493885 139.365337 
L 274.001989 138.167505 
L 274.349693 137.869019 
L 275.510093 136.8866 
L 276.124235 136.330208 
L 277.018197 135.521834 
L 277.782849 134.791397 
L 278.526302 134.073988 
L 279.342463 133.252586 
L 280.034406 132.540606 
L 280.81473 131.713775 
L 281.54251 130.915792 
L 282.206972 130.174963 
L 283.050614 129.189815 
L 283.522792 128.636152 
L 284.558718 127.348434 
L 284.762412 127.097341 
L 285.938379 125.55853 
L 286.066822 125.379517 
L 287.065217 124.019719 
L 287.574926 123.259522 
L 288.115886 122.480907 
L 289.080352 120.942096 
L 289.08303 120.93747 
L 290.016789 119.403285 
L 290.591134 118.33338 
L 290.859152 117.864474 
L 291.639203 116.325663 
L 292.099238 115.280768 
L 292.334177 114.786851 
L 292.955198 113.24804 
L 293.468239 111.709229 
L 293.607342 111.166319 
L 293.887398 110.170418 
L 294.175489 108.631607 
L 294.301473 107.092795 
L 294.215237 105.553984 
L 293.819601 104.015173 
L 293.607342 103.587728 
L 292.794087 102.476362 
L 292.099238 101.905887 
L 290.591134 101.272377 
L 289.08303 101.090554 
L 287.574926 101.189408 
L 286.066822 101.484103 
L 284.558718 101.935895 
L 283.198457 102.476362 
L 283.050614 102.530275 
L 281.54251 103.213767 
L 280.056438 104.015173 
L 280.034406 104.026263 
L 278.526302 104.896839 
L 277.532631 105.553984 
L 277.018197 105.876967 
L 275.510093 106.93712 
L 275.307107 107.092795 
L 274.001989 108.059498 
L 273.298444 108.631607 
L 272.493885 109.271098 
L 271.449506 110.170418 
L 270.985781 110.565437 
L 269.729999 111.709229 
L 269.477677 111.939326 
L 268.117908 113.24804 
L 267.969573 113.392709 
L 266.597578 114.786851 
L 266.461469 114.928704 
L 265.158383 116.325663 
L 264.953365 116.553829 
L 263.793819 117.864474 
L 263.445261 118.27846 
L 262.50093 119.403285 
L 261.937156 120.117546 
L 261.279996 120.942096 
L 260.429052 122.091644 
L 260.134439 122.480907 
L 259.054554 124.019719 
L 258.920948 124.224626 
L 258.018552 125.55853 
L 257.412844 126.555008 
L 257.066502 127.097341 
L 256.180492 128.636152 
L 255.90474 129.171475 
L 255.353664 130.174963 
L 254.616782 131.713775 
L 254.396636 132.24381 
L 253.943438 133.252586 
L 253.365425 134.791397 
L 252.892294 136.330208 
L 252.888532 136.347089 
L 252.515971 137.869019 
L 252.284959 139.407831 
L 252.230195 140.946642 
L 252.416161 142.485453 
L 252.888532 143.837317 
L 252.978789 144.024264 
L 254.396636 145.549847 
L 254.420268 145.563075 
L 255.90474 146.161104 
" style="fill:none;stroke:#4c72b0;stroke-width:1.5;"/>
   </g>
   <g id="LineCollection_7">
    <path clip-path="url(#p142c2b7a8a)" d="M 298.131655 179.433165 
L 299.639759 180.070947 
L 301.147863 180.179626 
L 302.655967 179.973166 
L 304.164071 179.547726 
L 304.478118 179.416922 
L 305.672175 178.945706 
L 307.180279 178.208046 
L 307.742748 177.878111 
L 308.688383 177.34413 
L 310.196487 176.366199 
L 310.233401 176.339299 
L 311.704592 175.290288 
L 312.325784 174.800488 
L 313.212696 174.107781 
L 314.206741 173.261677 
L 314.7208 172.822882 
L 315.920302 171.722866 
L 316.228904 171.435521 
L 317.497573 170.184055 
L 317.737008 169.941246 
L 318.960066 168.645243 
L 319.245112 168.330828 
L 320.321943 167.106432 
L 320.753216 166.589532 
L 321.591503 165.567621 
L 322.26132 164.695977 
L 322.772106 164.02881 
L 323.769424 162.620472 
L 323.862692 162.489999 
L 324.874196 160.951187 
L 325.277528 160.272228 
L 325.800293 159.412376 
L 326.63084 157.873565 
L 326.785632 157.542745 
L 327.371958 156.334754 
L 328.002252 154.795943 
L 328.293737 153.905054 
L 328.516546 153.257131 
L 328.878494 151.71832 
L 329.054184 150.179509 
L 328.965208 148.640698 
L 328.444336 147.101887 
L 328.293737 146.879297 
L 326.785632 145.685676 
L 326.304571 145.563075 
L 325.277528 145.3777 
L 323.769424 145.462187 
L 323.346816 145.563075 
L 322.26132 145.806724 
L 320.753216 146.334428 
L 319.245112 147.013176 
L 319.086035 147.101887 
L 317.737008 147.822524 
L 316.414566 148.640698 
L 316.228904 148.752104 
L 314.7208 149.782823 
L 314.199613 150.179509 
L 313.212696 150.919929 
L 312.242628 151.71832 
L 311.704592 152.160216 
L 310.469408 153.257131 
L 310.196487 153.502006 
L 308.843709 154.795943 
L 308.688383 154.947923 
L 307.340214 156.334754 
L 307.180279 156.505165 
L 305.941838 157.873565 
L 305.672175 158.186084 
L 304.637925 159.412376 
L 304.164071 160.009137 
L 303.423091 160.951187 
L 302.655967 162.000291 
L 302.296537 162.489999 
L 301.258135 164.02881 
L 301.147863 164.208028 
L 300.296552 165.567621 
L 299.639759 166.739662 
L 299.427793 167.106432 
L 298.651419 168.645243 
L 298.131655 169.839008 
L 297.974567 170.184055 
L 297.414778 171.722866 
L 296.988514 173.261677 
L 296.722595 174.800488 
L 296.685653 176.339299 
L 297.030814 177.878111 
L 298.111864 179.416922 
L 298.131655 179.433165 
" style="fill:none;stroke:#4c72b0;stroke-width:1.5;"/>
    <path clip-path="url(#p142c2b7a8a)" d="M 258.920948 142.945625 
L 260.429052 142.993652 
L 261.937156 142.771051 
L 262.928453 142.485453 
L 263.445261 142.34703 
L 264.953365 141.77226 
L 266.461469 141.060708 
L 266.662421 140.946642 
L 267.969573 140.242741 
L 269.311031 139.407831 
L 269.477677 139.30822 
L 270.985781 138.290699 
L 271.547076 137.869019 
L 272.493885 137.174431 
L 273.540313 136.330208 
L 274.001989 135.962037 
L 275.355652 134.791397 
L 275.510093 134.657754 
L 277.018197 133.262562 
L 277.028481 133.252586 
L 278.526302 131.774221 
L 278.585094 131.713775 
L 280.034406 130.179153 
L 280.038254 130.174963 
L 281.403994 128.636152 
L 281.54251 128.47213 
L 282.687515 127.097341 
L 283.050614 126.63333 
L 283.890945 125.55853 
L 284.558718 124.638061 
L 285.012739 124.019719 
L 286.048733 122.480907 
L 286.066822 122.451736 
L 287.027719 120.942096 
L 287.574926 119.981407 
L 287.917341 119.403285 
L 288.723968 117.864474 
L 289.08303 117.078734 
L 289.445925 116.325663 
L 290.068113 114.786851 
L 290.580164 113.24804 
L 290.591134 113.201416 
L 290.966496 111.709229 
L 291.187882 110.170418 
L 291.195075 108.631607 
L 290.885667 107.092795 
L 290.591134 106.469851 
L 289.900616 105.553984 
L 289.08303 104.945277 
L 287.574926 104.46536 
L 286.066822 104.422726 
L 284.558718 104.651057 
L 283.050614 105.07361 
L 281.824888 105.553984 
L 281.54251 105.657657 
L 280.034406 106.363897 
L 278.722341 107.092795 
L 278.526302 107.196487 
L 277.018197 108.119645 
L 276.279866 108.631607 
L 275.510093 109.148274 
L 274.14592 110.170418 
L 274.001989 110.27609 
L 272.493885 111.484251 
L 272.233603 111.709229 
L 270.985781 112.783862 
L 270.481494 113.24804 
L 269.477677 114.179893 
L 268.857724 114.786851 
L 267.969573 115.674545 
L 267.343671 116.325663 
L 266.461469 117.274088 
L 265.926909 117.864474 
L 264.953365 118.989331 
L 264.600077 119.403285 
L 263.445261 120.836388 
L 263.360178 120.942096 
L 262.190381 122.480907 
L 261.937156 122.839942 
L 261.094174 124.019719 
L 260.429052 125.039886 
L 260.082041 125.55853 
L 259.148865 127.097341 
L 258.920948 127.515783 
L 258.2858 128.636152 
L 257.520278 130.174963 
L 257.412844 130.426425 
L 256.83239 131.713775 
L 256.2552 133.252586 
L 255.90474 134.429491 
L 255.789445 134.791397 
L 255.465116 136.330208 
L 255.32086 137.869019 
L 255.422619 139.407831 
L 255.90474 140.946642 
L 257.412844 142.480555 
L 257.423952 142.485453 
L 258.920948 142.945625 
" style="fill:none;stroke:#4c72b0;stroke-width:1.5;"/>
   </g>
   <g id="LineCollection_8">
    <path clip-path="url(#p142c2b7a8a)" d="M 302.655967 175.250967 
L 304.164071 175.501476 
L 305.672175 175.287655 
L 307.180279 174.800488 
L 308.688383 174.069922 
L 310.089999 173.261677 
L 310.196487 173.20054 
L 311.704592 172.161822 
L 312.271278 171.722866 
L 313.212696 170.986531 
L 314.144712 170.184055 
L 314.7208 169.676632 
L 315.802214 168.645243 
L 316.228904 168.223421 
L 317.289072 167.106432 
L 317.737008 166.610695 
L 318.635031 165.567621 
L 319.245112 164.813185 
L 319.858556 164.02881 
L 320.753216 162.794172 
L 320.96951 162.489999 
L 321.953196 160.951187 
L 322.26132 160.406649 
L 322.819876 159.412376 
L 323.564262 157.873565 
L 323.769424 157.335445 
L 324.152331 156.334754 
L 324.551382 154.795943 
L 324.705597 153.257131 
L 324.429627 151.71832 
L 323.769424 150.749599 
L 322.658166 150.179509 
L 322.26132 150.067314 
L 320.753216 150.117036 
L 320.527519 150.179509 
L 319.245112 150.526577 
L 317.737008 151.154287 
L 316.683249 151.71832 
L 316.228904 151.959223 
L 314.7208 152.925668 
L 314.271207 153.257131 
L 313.212696 154.041193 
L 312.294591 154.795943 
L 311.704592 155.28963 
L 310.55992 156.334754 
L 310.196487 156.676973 
L 309.012807 157.873565 
L 308.688383 158.216319 
L 307.617229 159.412376 
L 307.180279 159.929172 
L 306.350179 160.951187 
L 305.672175 161.847488 
L 305.198328 162.489999 
L 304.164071 164.016707 
L 304.155961 164.02881 
L 303.254019 165.567621 
L 302.655967 166.718689 
L 302.454309 167.106432 
L 301.814954 168.645243 
L 301.318909 170.184055 
L 301.147863 171.146437 
L 301.044793 171.722866 
L 301.102783 173.261677 
L 301.147863 173.405406 
L 301.983489 174.800488 
L 302.655967 175.250967 
" style="fill:none;stroke:#4c72b0;stroke-width:1.5;"/>
    <path clip-path="url(#p142c2b7a8a)" d="M 260.429052 138.254913 
L 261.937156 138.854716 
L 263.445261 138.874309 
L 264.953365 138.5725 
L 266.461469 138.055498 
L 266.851428 137.869019 
L 267.969573 137.3526 
L 269.477677 136.514251 
L 269.757975 136.330208 
L 270.985781 135.539463 
L 272.01621 134.791397 
L 272.493885 134.446939 
L 273.987733 133.252586 
L 274.001989 133.24112 
L 275.510093 131.917108 
L 275.726319 131.713775 
L 277.018197 130.472514 
L 277.311443 130.174963 
L 278.526302 128.899571 
L 278.767224 128.636152 
L 280.034406 127.184459 
L 280.108428 127.097341 
L 281.341759 125.55853 
L 281.54251 125.289794 
L 282.478055 124.019719 
L 283.050614 123.17427 
L 283.520055 122.480907 
L 284.462511 120.942096 
L 284.558718 120.763533 
L 285.300838 119.403285 
L 286.036636 117.864474 
L 286.066822 117.78541 
L 286.63815 116.325663 
L 287.097626 114.786851 
L 287.382363 113.24804 
L 287.404127 111.709229 
L 286.952721 110.170418 
L 286.066822 109.120785 
L 284.9668 108.631607 
L 284.558718 108.51814 
L 283.050614 108.519002 
L 282.53327 108.631607 
L 281.54251 108.83791 
L 280.034406 109.373705 
L 278.526302 110.069654 
L 278.352266 110.170418 
L 277.018197 110.921684 
L 275.803889 111.709229 
L 275.510093 111.896917 
L 274.001989 112.991868 
L 273.683583 113.24804 
L 272.493885 114.205665 
L 271.829944 114.786851 
L 270.985781 115.535474 
L 270.154251 116.325663 
L 269.477677 116.985277 
L 268.623874 117.864474 
L 267.969573 118.564527 
L 267.216796 119.403285 
L 266.461469 120.288949 
L 265.919107 120.942096 
L 264.953365 122.181817 
L 264.723386 122.480907 
L 263.62881 124.019719 
L 263.445261 124.302416 
L 262.62974 125.55853 
L 261.937156 126.741874 
L 261.72624 127.097341 
L 260.934094 128.636152 
L 260.429052 129.775769 
L 260.247384 130.174963 
L 259.703701 131.713775 
L 259.311304 133.252586 
L 259.121178 134.791397 
L 259.257387 136.330208 
L 260.019761 137.869019 
L 260.429052 138.254913 
" style="fill:none;stroke:#4c72b0;stroke-width:1.5;"/>
   </g>
   <g id="LineCollection_9">
    <path clip-path="url(#p142c2b7a8a)" d="M 307.180279 169.675446 
L 308.688383 169.763694 
L 310.196487 169.220725 
L 311.222885 168.645243 
L 311.704592 168.361354 
L 313.212696 167.237735 
L 313.360857 167.106432 
L 314.7208 165.832595 
L 314.975676 165.567621 
L 316.228904 164.168636 
L 316.344152 164.02881 
L 317.457935 162.489999 
L 317.737008 162.04152 
L 318.362476 160.951187 
L 319.082184 159.412376 
L 319.245112 158.764856 
L 319.4512 157.873565 
L 319.245112 156.356394 
L 319.235792 156.334754 
L 317.737008 155.733053 
L 316.228904 156.03583 
L 315.616407 156.334754 
L 314.7208 156.791609 
L 313.212696 157.785607 
L 313.105959 157.873565 
L 311.704592 159.087607 
L 311.37066 159.412376 
L 310.196487 160.631886 
L 309.916491 160.951187 
L 308.688383 162.471379 
L 308.674403 162.489999 
L 307.71842 164.02881 
L 307.180279 165.03548 
L 306.915073 165.567621 
L 306.439717 167.106432 
L 306.406127 168.645243 
L 307.180279 169.675446 
" style="fill:none;stroke:#4c72b0;stroke-width:1.5;"/>
    <path clip-path="url(#p142c2b7a8a)" d="M 263.445261 133.462876 
L 264.953365 134.565677 
L 266.461469 134.576716 
L 267.969573 134.158385 
L 269.477677 133.506262 
L 269.912768 133.252586 
L 270.985781 132.624609 
L 272.322339 131.713775 
L 272.493885 131.594801 
L 274.001989 130.385492 
L 274.238829 130.174963 
L 275.510093 129.009998 
L 275.887533 128.636152 
L 277.018197 127.466017 
L 277.353176 127.097341 
L 278.526302 125.729786 
L 278.666618 125.55853 
L 279.825291 124.019719 
L 280.034406 123.712709 
L 280.843857 122.480907 
L 281.54251 121.298218 
L 281.748716 120.942096 
L 282.476044 119.403285 
L 283.050614 117.918587 
L 283.07134 117.864474 
L 283.390603 116.325663 
L 283.377736 114.786851 
L 283.050614 113.912007 
L 282.453399 113.24804 
L 281.54251 112.835561 
L 280.034406 112.840153 
L 278.526302 113.231134 
L 278.49015 113.24804 
L 277.018197 113.933847 
L 275.510093 114.786851 
L 274.001989 115.855513 
L 273.411712 116.325663 
L 272.493885 117.073465 
L 271.613715 117.864474 
L 270.985781 118.44963 
L 270.041405 119.403285 
L 269.477677 120.001756 
L 268.646407 120.942096 
L 267.969573 121.758369 
L 267.398157 122.480907 
L 266.461469 123.761799 
L 266.278753 124.019719 
L 265.315816 125.55853 
L 264.953365 126.222036 
L 264.485442 127.097341 
L 263.812403 128.636152 
L 263.445261 129.766713 
L 263.314364 130.174963 
L 263.111787 131.713775 
L 263.331781 133.252586 
L 263.445261 133.462876 
" style="fill:none;stroke:#4c72b0;stroke-width:1.5;"/>
   </g>
   <g id="LineCollection_10"/>
   <g id="patch_3">
    <path d="M 56.835 382.54 
L 56.835 76.316571 
" style="fill:none;stroke:#ffffff;stroke-linecap:square;stroke-linejoin:miter;stroke-width:1.25;"/>
   </g>
   <g id="patch_4">
    <path d="M 56.835 382.54 
L 356.947714 382.54 
" style="fill:none;stroke:#ffffff;stroke-linecap:square;stroke-linejoin:miter;stroke-width:1.25;"/>
   </g>
  </g>
  <g id="axes_2">
   <g id="patch_5">
    <path d="M 56.835 65.757143 
L 356.947714 65.757143 
L 356.947714 12.96 
L 56.835 12.96 
z
" style="fill:#eaeaf2;"/>
   </g>
   <g id="matplotlib.axis_3">
    <g id="xtick_7">
     <g id="line2d_13">
      <path clip-path="url(#pde733ded15)" d="M 91.9402 65.757143 
L 91.9402 12.96 
" style="fill:none;stroke:#ffffff;stroke-linecap:round;"/>
     </g>
    </g>
    <g id="xtick_8">
     <g id="line2d_14">
      <path clip-path="url(#pde733ded15)" d="M 144.048612 65.757143 
L 144.048612 12.96 
" style="fill:none;stroke:#ffffff;stroke-linecap:round;"/>
     </g>
    </g>
    <g id="xtick_9">
     <g id="line2d_15">
      <path clip-path="url(#pde733ded15)" d="M 196.157024 65.757143 
L 196.157024 12.96 
" style="fill:none;stroke:#ffffff;stroke-linecap:round;"/>
     </g>
    </g>
    <g id="xtick_10">
     <g id="line2d_16">
      <path clip-path="url(#pde733ded15)" d="M 248.265436 65.757143 
L 248.265436 12.96 
" style="fill:none;stroke:#ffffff;stroke-linecap:round;"/>
     </g>
    </g>
    <g id="xtick_11">
     <g id="line2d_17">
      <path clip-path="url(#pde733ded15)" d="M 300.373849 65.757143 
L 300.373849 12.96 
" style="fill:none;stroke:#ffffff;stroke-linecap:round;"/>
     </g>
    </g>
    <g id="xtick_12">
     <g id="line2d_18">
      <path clip-path="url(#pde733ded15)" d="M 352.482261 65.757143 
L 352.482261 12.96 
" style="fill:none;stroke:#ffffff;stroke-linecap:round;"/>
     </g>
    </g>
   </g>
   <g id="matplotlib.axis_4">
    <g id="ytick_7"/>
    <g id="ytick_8"/>
   </g>
   <g id="line2d_19">
    <path clip-path="url(#pde733ded15)" d="M 66.183559 65.739368 
L 74.668452 65.609343 
L 80.325047 65.303058 
L 84.567493 64.851783 
L 88.809939 64.171955 
L 100.123129 62.012356 
L 102.951426 61.735921 
L 105.779724 61.678631 
L 108.608021 61.847483 
L 111.436318 62.209769 
L 117.092913 63.23719 
L 121.33536 63.953185 
L 125.577806 64.390897 
L 128.406103 64.489152 
L 132.648549 64.381638 
L 145.375888 63.685162 
L 149.618334 63.75573 
L 158.103226 64.012589 
L 160.931524 63.912577 
L 163.759821 63.640106 
L 166.588119 63.189707 
L 170.830565 62.263596 
L 176.48716 60.964367 
L 180.729606 60.259172 
L 189.214498 59.138046 
L 192.042796 58.317567 
L 193.456944 57.725998 
L 194.871093 56.995922 
L 196.285242 56.123693 
L 199.113539 53.98583 
L 203.355985 50.180136 
L 206.184283 47.729521 
L 207.598432 46.677768 
L 209.01258 45.802445 
L 210.426729 45.13936 
L 211.840878 44.712777 
L 213.255026 44.533138 
L 214.669175 44.595776 
L 216.083324 44.880793 
L 217.497473 45.354135 
L 220.32577 46.673147 
L 223.154067 48.104206 
L 224.568216 48.715907 
L 225.982365 49.191626 
L 227.396514 49.494696 
L 228.810662 49.602356 
L 230.224811 49.507114 
L 231.63896 49.216844 
L 233.053108 48.753608 
L 235.881406 47.452014 
L 241.538001 44.577632 
L 244.366298 43.530184 
L 251.437042 41.378431 
L 252.851191 40.629875 
L 254.265339 39.639501 
L 255.679488 38.365379 
L 257.093637 36.784597 
L 258.507785 34.897825 
L 259.921934 32.732157 
L 262.750232 27.806689 
L 265.578529 22.72349 
L 266.992678 20.417733 
L 268.406827 18.435297 
L 269.820975 16.89071 
L 271.235124 15.88001 
L 272.649273 15.473303 
L 274.063421 15.709178 
L 275.47757 16.591432 
L 276.891719 18.088367 
L 278.305868 20.134622 
L 279.720016 22.635317 
L 282.548314 28.510163 
L 285.376611 34.618247 
L 286.79076 37.408562 
L 288.204909 39.854939 
L 289.619057 41.853692 
L 291.033206 43.324261 
L 292.447355 44.212088 
L 293.861503 44.490303 
L 295.275652 44.16033 
L 296.689801 43.251502 
L 298.10395 41.819722 
L 299.518098 39.945182 
L 300.932247 37.729129 
L 306.588842 27.950101 
L 308.002991 25.938068 
L 309.417139 24.341176 
L 310.831288 23.250863 
L 312.245437 22.732911 
L 313.659586 22.82404 
L 315.073734 23.530421 
L 316.487883 24.828237 
L 317.902032 26.666255 
L 319.31618 28.970187 
L 320.730329 31.648419 
L 323.558627 37.714339 
L 327.801073 47.063343 
L 330.62937 52.517434 
L 332.043519 54.86171 
L 333.457668 56.923763 
L 334.871816 58.701681 
L 336.285965 60.205265 
L 337.700114 61.453165 
L 339.114263 62.47002 
L 340.528411 63.283839 
L 341.94256 63.923754 
L 343.356709 64.418246 
L 346.185006 65.074365 
L 347.599155 65.280362 
L 347.599155 65.280362 
" style="fill:none;stroke:#4c72b0;stroke-linecap:round;stroke-width:1.5;"/>
   </g>
   <g id="patch_6">
    <path d="M 56.835 65.757143 
L 356.947714 65.757143 
" style="fill:none;stroke:#ffffff;stroke-linecap:square;stroke-linejoin:miter;stroke-width:1.25;"/>
   </g>
  </g>
  <g id="axes_3">
   <g id="patch_7">
    <path d="M 367.296429 382.54 
L 419.04 382.54 
L 419.04 76.316571 
L 367.296429 76.316571 
z
" style="fill:#eaeaf2;"/>
   </g>
   <g id="matplotlib.axis_5">
    <g id="xtick_13"/>
    <g id="xtick_14"/>
   </g>
   <g id="matplotlib.axis_6">
    <g id="ytick_9">
     <g id="line2d_20">
      <path clip-path="url(#p6f5ee816e6)" d="M 367.296429 341.741246 
L 419.04 341.741246 
" style="fill:none;stroke:#ffffff;stroke-linecap:round;"/>
     </g>
    </g>
    <g id="ytick_10">
     <g id="line2d_21">
      <path clip-path="url(#p6f5ee816e6)" d="M 367.296429 290.315898 
L 419.04 290.315898 
" style="fill:none;stroke:#ffffff;stroke-linecap:round;"/>
     </g>
    </g>
    <g id="ytick_11">
     <g id="line2d_22">
      <path clip-path="url(#p6f5ee816e6)" d="M 367.296429 238.89055 
L 419.04 238.89055 
" style="fill:none;stroke:#ffffff;stroke-linecap:round;"/>
     </g>
    </g>
    <g id="ytick_12">
     <g id="line2d_23">
      <path clip-path="url(#p6f5ee816e6)" d="M 367.296429 187.465202 
L 419.04 187.465202 
" style="fill:none;stroke:#ffffff;stroke-linecap:round;"/>
     </g>
    </g>
    <g id="ytick_13">
     <g id="line2d_24">
      <path clip-path="url(#p6f5ee816e6)" d="M 367.296429 136.039853 
L 419.04 136.039853 
" style="fill:none;stroke:#ffffff;stroke-linecap:round;"/>
     </g>
    </g>
    <g id="ytick_14">
     <g id="line2d_25">
      <path clip-path="url(#p6f5ee816e6)" d="M 367.296429 84.614505 
L 419.04 84.614505 
" style="fill:none;stroke:#ffffff;stroke-linecap:round;"/>
     </g>
    </g>
   </g>
   <g id="line2d_26">
    <path clip-path="url(#p6f5ee816e6)" d="M 367.304045 372.488546 
L 367.42287 360.986213 
L 367.675309 355.235047 
L 368.050052 350.921672 
L 368.630567 346.608298 
L 369.678514 340.857131 
L 370.750123 335.105965 
L 371.142999 332.230382 
L 371.364799 329.354799 
L 371.385373 326.479216 
L 371.207139 323.603633 
L 370.652766 319.290258 
L 369.352974 310.663509 
L 369.012816 306.350134 
L 368.965861 302.036759 
L 369.19781 296.285593 
L 369.614909 286.221052 
L 369.818144 281.907678 
L 370.100256 279.032094 
L 370.593207 276.156511 
L 371.359969 273.280928 
L 372.423174 270.405345 
L 373.747911 267.529762 
L 378.113451 258.903013 
L 379.208616 256.02743 
L 379.976584 253.151846 
L 380.468219 250.276263 
L 381.318586 244.525097 
L 382.132965 241.649514 
L 382.719162 240.211722 
L 383.437068 238.773931 
L 385.242574 235.898348 
L 390.54425 228.70939 
L 391.382843 227.271598 
L 392.037498 225.833807 
L 392.471941 224.396015 
L 392.660594 222.958224 
L 392.590439 221.520432 
L 392.261956 220.082641 
L 391.68905 218.644849 
L 390.897998 217.207057 
L 389.925516 215.769266 
L 387.618992 212.893683 
L 383.995647 208.580308 
L 381.971048 205.704725 
L 381.161846 204.266933 
L 380.505641 202.829142 
L 380.005477 201.39135 
L 379.658087 199.953559 
L 379.455988 198.515767 
L 379.389826 197.077976 
L 379.450738 195.640184 
L 379.632485 194.202393 
L 379.933128 192.764601 
L 380.356063 191.326809 
L 380.910288 189.889018 
L 381.609814 188.451226 
L 382.472249 187.013435 
L 383.516619 185.575643 
L 384.76061 184.137852 
L 386.217441 182.70006 
L 387.892676 181.262269 
L 389.781276 179.824477 
L 394.112035 176.948894 
L 403.585044 171.197728 
L 405.695928 169.759936 
L 407.536758 168.322145 
L 409.030361 166.884353 
L 410.11195 165.446561 
L 410.734051 164.00877 
L 410.870486 162.570978 
L 410.519043 161.133187 
L 409.702639 159.695395 
L 408.468845 158.257604 
L 406.887834 156.819812 
L 403.05576 153.944229 
L 399.060677 151.068646 
L 397.286932 149.630854 
L 395.80344 148.193063 
L 394.699379 146.755271 
L 394.044967 145.31748 
L 393.887791 143.879688 
L 394.25023 142.441896 
L 395.128038 141.004105 
L 396.490174 139.566313 
L 398.27989 138.128522 
L 400.417085 136.69073 
L 405.319178 133.815147 
L 410.249672 130.939564 
L 412.410236 129.501772 
L 414.21124 128.063981 
L 415.553692 126.626189 
L 416.35969 125.188398 
L 416.576383 123.750606 
L 416.178385 122.312815 
L 415.168457 120.875023 
L 413.576436 119.437232 
L 411.456502 117.99944 
L 408.883043 116.561648 
L 405.945466 115.123857 
L 399.375798 112.248274 
L 389.250249 107.934899 
L 383.245971 105.059316 
L 380.621677 103.621524 
L 378.281586 102.183733 
L 376.232372 100.745941 
L 374.46904 99.30815 
L 372.97732 97.870358 
L 371.736172 96.432567 
L 370.720171 94.994775 
L 369.90166 93.556984 
L 369.252538 92.119192 
L 368.355907 89.243609 
L 367.840427 86.368026 
L 367.840427 86.368026 
" style="fill:none;stroke:#4c72b0;stroke-linecap:round;stroke-width:1.5;"/>
   </g>
   <g id="patch_8">
    <path d="M 367.296429 382.54 
L 367.296429 76.316571 
" style="fill:none;stroke:#ffffff;stroke-linecap:square;stroke-linejoin:miter;stroke-width:1.25;"/>
   </g>
  </g>
 </g>
 <defs>
  <clipPath id="p142c2b7a8a">
   <rect height="306.223429" width="300.112714" x="56.835" y="76.316571"/>
  </clipPath>
  <clipPath id="pde733ded15">
   <rect height="52.797143" width="300.112714" x="56.835" y="12.96"/>
  </clipPath>
  <clipPath id="p6f5ee816e6">
   <rect height="306.223429" width="51.743571" x="367.296429" y="76.316571"/>
  </clipPath>
 </defs>
</svg>
